<svg xmlns="http://www.w3.org/2000/svg" viewBox="0 0 1280 420" width="1280" height="420" role="img" aria-label="Wiseveo: your money, your data, your view.">
  <title>Wiseveo</title>
  <rect width="1280" height="420" fill="#F7FAF9"/>
  <g><polygon points="700.0,372.3 709.0,369.1 718.0,366.1 727.0,363.1 736.0,360.1 745.0,357.0 754.0,353.8 763.0,350.6 772.0,347.2 781.0,343.8 790.0,340.3 799.0,336.7 808.0,333.0 817.0,329.3 826.0,325.4 835.0,321.6 844.0,317.6 853.0,313.6 862.0,309.6 871.0,305.5 880.0,301.4 889.0,297.3 898.0,293.2 907.0,289.1 916.0,285.1 925.0,281.0 934.0,277.0 943.0,273.0 952.0,269.0 961.0,265.1 970.0,261.3 979.0,257.5 988.0,253.8 997.0,250.1 1006.0,246.5 1015.0,243.0 1024.0,239.5 1033.0,236.1 1042.0,232.8 1051.0,229.5 1060.0,226.2 1069.0,223.0 1078.0,219.8 1087.0,216.7 1096.0,213.6 1105.0,210.5 1114.0,207.4 1123.0,204.3 1132.0,201.1 1141.0,198.0 1150.0,194.8 1159.0,191.6 1168.0,188.3 1177.0,185.0 1186.0,181.6 1195.0,178.2 1204.0,174.7 1213.0,171.1 1222.0,167.5 1231.0,163.8 1240.0,160.0 1240.0,288.0 1231.0,289.0 1222.0,289.9 1213.0,290.8 1204.0,291.7 1195.0,292.5 1186.0,293.2 1177.0,293.9 1168.0,294.6 1159.0,295.2 1150.0,295.9 1141.0,296.5 1132.0,297.1 1123.0,297.7 1114.0,298.3 1105.0,298.9 1096.0,299.6 1087.0,300.3 1078.0,301.0 1069.0,301.8 1060.0,302.6 1051.0,303.6 1042.0,304.6 1033.0,305.6 1024.0,306.8 1015.0,308.1 1006.0,309.4 997.0,310.8 988.0,312.4 979.0,314.0 970.0,315.7 961.0,317.5 952.0,319.4 943.0,321.4 934.0,323.5 925.0,325.6 916.0,327.8 907.0,330.0 898.0,332.3 889.0,334.7 880.0,337.0 871.0,339.4 862.0,341.8 853.0,344.3 844.0,346.7 835.0,349.1 826.0,351.5 817.0,353.9 808.0,356.3 799.0,358.6 790.0,360.9 781.0,363.2 772.0,365.5 763.0,367.7 754.0,369.9 745.0,372.2 736.0,374.4 727.0,376.6 718.0,378.9 709.0,381.4 700.0,384.3" fill="#1D9384" fill-opacity="0.13"/><polyline points="700.0,372.3 709.0,369.1 718.0,366.1 727.0,363.1 736.0,360.1 745.0,357.0 754.0,353.8 763.0,350.6 772.0,347.2 781.0,343.8 790.0,340.3 799.0,336.7 808.0,333.0 817.0,329.3 826.0,325.4 835.0,321.6 844.0,317.6 853.0,313.6 862.0,309.6 871.0,305.5 880.0,301.4 889.0,297.3 898.0,293.2 907.0,289.1 916.0,285.1 925.0,281.0 934.0,277.0 943.0,273.0 952.0,269.0 961.0,265.1 970.0,261.3 979.0,257.5 988.0,253.8 997.0,250.1 1006.0,246.5 1015.0,243.0 1024.0,239.5 1033.0,236.1 1042.0,232.8 1051.0,229.5 1060.0,226.2 1069.0,223.0 1078.0,219.8 1087.0,216.7 1096.0,213.6 1105.0,210.5 1114.0,207.4 1123.0,204.3 1132.0,201.1 1141.0,198.0 1150.0,194.8 1159.0,191.6 1168.0,188.3 1177.0,185.0 1186.0,181.6 1195.0,178.2 1204.0,174.7 1213.0,171.1 1222.0,167.5 1231.0,163.8 1240.0,160.0" fill="none" stroke="#1D9384" stroke-width="1.5" stroke-dasharray="5 5" stroke-opacity="0.55"/><polyline points="700.0,384.3 709.0,381.4 718.0,378.9 727.0,376.6 736.0,374.4 745.0,372.2 754.0,369.9 763.0,367.7 772.0,365.5 781.0,363.2 790.0,360.9 799.0,358.6 808.0,356.3 817.0,353.9 826.0,351.5 835.0,349.1 844.0,346.7 853.0,344.3 862.0,341.8 871.0,339.4 880.0,337.0 889.0,334.7 898.0,332.3 907.0,330.0 916.0,327.8 925.0,325.6 934.0,323.5 943.0,321.4 952.0,319.4 961.0,317.5 970.0,315.7 979.0,314.0 988.0,312.4 997.0,310.8 1006.0,309.4 1015.0,308.1 1024.0,306.8 1033.0,305.6 1042.0,304.6 1051.0,303.6 1060.0,302.6 1069.0,301.8 1078.0,301.0 1087.0,300.3 1096.0,299.6 1105.0,298.9 1114.0,298.3 1123.0,297.7 1132.0,297.1 1141.0,296.5 1150.0,295.9 1159.0,295.2 1168.0,294.6 1177.0,293.9 1186.0,293.2 1195.0,292.5 1204.0,291.7 1213.0,290.8 1222.0,289.9 1231.0,289.0 1240.0,288.0" fill="none" stroke="#1D9384" stroke-width="1.5" stroke-dasharray="5 5" stroke-opacity="0.55"/><polyline points="700.0,378.3 709.0,375.2 718.0,372.5 727.0,369.9 736.0,367.2 745.0,364.6 754.0,361.9 763.0,359.1 772.0,356.4 781.0,353.5 790.0,350.6 799.0,347.7 808.0,344.6 817.0,341.6 826.0,338.5 835.0,335.3 844.0,332.2 853.0,328.9 862.0,325.7 871.0,322.5 880.0,319.2 889.0,316.0 898.0,312.8 907.0,309.6 916.0,306.4 925.0,303.3 934.0,300.2 943.0,297.2 952.0,294.2 961.0,291.3 970.0,288.5 979.0,285.7 988.0,283.1 997.0,280.5 1006.0,278.0 1015.0,275.5 1024.0,273.2 1033.0,270.9 1042.0,268.7 1051.0,266.5 1060.0,264.4 1069.0,262.4 1078.0,260.4 1087.0,258.5 1096.0,256.6 1105.0,254.7 1114.0,252.8 1123.0,251.0 1132.0,249.1 1141.0,247.2 1150.0,245.3 1159.0,243.4 1168.0,241.5 1177.0,239.5 1186.0,237.4 1195.0,235.3 1204.0,233.2 1213.0,231.0 1222.0,228.7 1231.0,226.4 1240.0,224.0" fill="none" stroke="#0F766E" stroke-width="2.5" stroke-linecap="round" stroke-linejoin="round"/></g>
  <circle cx="980" cy="96" r="4.5" fill="#134E4A" fill-opacity="0.95"/><circle cx="1120" cy="62" r="3" fill="#134E4A" fill-opacity="0.7"/><circle cx="876" cy="138" r="2.6" fill="#134E4A" fill-opacity="0.55"/><circle cx="1196" cy="132" r="3.4" fill="#134E4A" fill-opacity="0.6"/>
  <g transform="translate(84 92) scale(1.55)"><polyline points="12,26 20,42 31,21 42,42 50,26" fill="none" stroke="#0F766E" stroke-width="4.5" stroke-linecap="round" stroke-linejoin="round"/><circle cx="42.5" cy="13" r="3.2" fill="#134E4A"/><g fill="#09201D"><path d="M447 0 30 1440H216L536 301L855 1439L1042 1440L1362 301L1681 1440H1868L1451 0H1273L948.5 1129L625 0Z" transform="translate(72.000 44.000) scale(0.015000 -0.015000)"/><path d="M160 0V1440H338V0Z" transform="translate(100.970 44.000) scale(0.015000 -0.015000)"/><path d="M651 -30Q498 -30 375.5 22.0Q253 74 173.5 170.25Q94 266.5 70 399L254 428Q288.5 292 399.0 215.5Q509.5 139 660 139Q756.5 139 835.0 169.5Q913.5 200 959.75 256.75Q1006 313.5 1006 392Q1006 439.5 989.25 474.25Q972.5 509 944.25 533.25Q916 557.5 879.75 574.5Q843.5 591.5 805 603L438 712Q378 729.5 322.0 757.0Q266 784.5 222.0 826.0Q178 867.5 152.0 926.25Q126 985 126 1065Q126 1192.5 192.25 1283.25Q258.5 1374 372.5 1421.75Q486.5 1469.5 630 1469Q775 1468 889.5 1417.5Q1004 1367 1079.25 1273.0Q1154.5 1179 1181 1048L992 1015Q977 1102.5 925.5 1166.25Q874 1230 796.75 1264.5Q719.5 1299 628 1300Q539.5 1301 468.5 1271.75Q397.5 1242.5 355.75 1191.0Q314 1139.5 314 1073Q314 1006.5 351.75 966.0Q389.5 925.5 445.0 902.25Q500.5 879 554 864L828 785Q875 772 936.5 749.0Q998 726 1056.0 684.25Q1114 642.5 1152.0 574.25Q1190 506 1190 402Q1190 297.5 1148.25 216.75Q1106.5 136 1032.5 81.25Q958.5 26.5 860.75 -1.75Q763 -30 651 -30Z" transform="translate(108.940 44.000) scale(0.015000 -0.015000)"/><path d="M140 0V1440H1050V1271H318V820H930V651H318V169H1050V0Z" transform="translate(128.340 44.000) scale(0.015000 -0.015000)"/><path d="M450 0 10 1440H290L650 256L1016 1440H1296L856 0Z" transform="translate(146.090 44.000) scale(0.015000 -0.015000)"/><path d="M140 0V1440H1080V1186H412V878H960V624H412V254H1080V0Z" transform="translate(166.180 44.000) scale(0.015000 -0.015000)"/><path d="M758 -30Q542 -30 385.5 64.0Q229 158 144.5 327.0Q60 496 60 720Q60 944 144.5 1113.0Q229 1282 385.5 1376.0Q542 1470 758 1470Q974 1470 1130.5 1376.0Q1287 1282 1371.5 1113.0Q1456 944 1456 720Q1456 496 1371.5 327.0Q1287 158 1130.5 64.0Q974 -30 758 -30ZM758 226Q895 224 986.0 285.0Q1077 346 1122.5 458.0Q1168 570 1168 720Q1168 870 1122.5 980.0Q1077 1090 986.0 1151.0Q895 1212 758 1214Q621 1216 530.0 1155.0Q439 1094 393.5 982.0Q348 870 348 720Q348 570 393.5 460.0Q439 350 530.0 289.0Q621 228 758 226Z" transform="translate(184.380 44.000) scale(0.015000 -0.015000)"/></g></g>
  <g fill="#0F766E"><path d="M140 0V1440H722.0015869140625Q743.0015869140625 1440 774.0018615722656 1438.5Q805.0021362304688 1437 832.6688232421875 1432Q953.3359985351562 1413.333251953125 1033.8361206054688 1350.1664733886719Q1114.3362426757812 1286.9996948242188 1154.1695251464844 1191.1661987304688Q1194.0028076171875 1095.3327026367188 1194.0028076171875 978.665771484375Q1194.0028076171875 861.9988403320312 1153.836181640625 766.1653442382812Q1113.6695556640625 670.3318481445312 1033.16943359375 607.1650695800781Q952.6693115234375 543.998291015625 832.6688232421875 525.33154296875Q805.0021362304688 521.33154296875 773.6685180664062 519.33154296875Q742.3348999023438 517.33154296875 722.0015869140625 517.33154296875H349.337158203125V0ZM349.337158203125 714.6683349609375H714.0013427734375Q733.6680908203125 714.6683349609375 758.1681213378906 716.6683349609375Q782.6681518554688 718.6683349609375 804.6680908203125 724.001708984375Q869.0008544921875 739.3350219726562 907.8336486816406 779.6680603027344Q946.6664428710938 820.0010986328125 963.9994201660156 872.8338623046875Q981.3323974609375 925.6666259765625 981.3323974609375 978.665771484375Q981.3323974609375 1031.6649169921875 963.9994201660156 1084.4976806640625Q946.6664428710938 1137.3304443359375 907.8336486816406 1177.6634826660156Q869.0008544921875 1217.9965209960938 804.6680908203125 1233.329833984375Q782.6681518554688 1238.9965209960938 758.1681213378906 1240.8298645019531Q733.6680908203125 1242.6632080078125 714.0013427734375 1242.6632080078125H349.337158203125Z" transform="translate(86.000 232.000) scale(0.007500 -0.007500)"/><path d="M140 0V1440H1060.001220703125V1242.6632080078125H349.337158203125V839.335693359375H940.001220703125V641.9989013671875H349.337158203125V197.3367919921875H1060.001220703125V0Z" transform="translate(98.005 232.000) scale(0.007500 -0.007500)"/><path d="M140 0V1440H722.0015869140625Q743.0015869140625 1440 774.0018615722656 1438.5Q805.0021362304688 1437 832.6688232421875 1432Q953.3359985351562 1413.333251953125 1033.8361206054688 1350.1664733886719Q1114.3362426757812 1286.9996948242188 1154.1695251464844 1191.1661987304688Q1194.0028076171875 1095.3327026367188 1194.0028076171875 978.665771484375Q1194.0028076171875 806.6652221679688 1106.002685546875 682.3316345214844Q1018.0025634765625 557.998046875 842.0015869140625 527.3314208984375L756.6661376953125 517.33154296875H349.337158203125V0ZM981.9981689453125 0 697.9981689453125 586 908.6690673828125 640 1220.6690673828125 0ZM349.337158203125 714.6683349609375H714.0013427734375Q733.6680908203125 714.6683349609375 758.1681213378906 716.6683349609375Q782.6681518554688 718.6683349609375 804.6680908203125 724.001708984375Q869.0008544921875 739.3350219726562 907.8336486816406 779.6680603027344Q946.6664428710938 820.0010986328125 963.9994201660156 872.8338623046875Q981.3323974609375 925.6666259765625 981.3323974609375 978.665771484375Q981.3323974609375 1031.6649169921875 963.9994201660156 1084.4976806640625Q946.6664428710938 1137.3304443359375 907.8336486816406 1177.6634826660156Q869.0008544921875 1217.9965209960938 804.6680908203125 1233.329833984375Q782.6681518554688 1238.9965209960938 758.1681213378906 1240.8298645019531Q733.6680908203125 1242.6632080078125 714.0013427734375 1242.6632080078125H349.337158203125Z" transform="translate(109.305 232.000) scale(0.007500 -0.007500)"/><path d="M662.0013427734375 -30Q506.667724609375 -30 382.16748046875 23.50018310546875Q257.667236328125 77.0003662109375 177.1671142578125 176.33407592773438Q96.6669921875 275.66778564453125 73.333740234375 412.6683349609375L290.671142578125 446.002197265625Q323.67095947265625 314.002685546875 428.6702880859375 240.66973876953125Q533.6696166992188 167.3367919921875 674.001708984375 167.3367919921875Q760.6671752929688 167.3367919921875 833.9998779296875 194.66973876953125Q907.3325805664062 222.002685546875 951.6656799316406 273.5020446777344Q995.998779296875 325.00140380859375 995.998779296875 397.333984375Q995.998779296875 436.33294677734375 982.6658630371094 466.3323669433594Q969.3329467773438 496.331787109375 945.5001525878906 518.4981994628906Q921.6673583984375 540.6646118164062 888.3343811035156 557.3312377929688Q855.0014038085938 573.9978637695312 815.3345947265625 585.9979248046875L446.0009765625 695.331298828125Q392.001708984375 710.9977416992188 336.16839599609375 736.6641845703125Q280.3350830078125 762.3306274414062 233.6680908203125 803.6639404296875Q187.0010986328125 844.9972534179688 158.16741943359375 906.6642761230469Q129.333740234375 968.331298828125 129.333740234375 1055.9989013671875Q129.333740234375 1189.3329467773438 197.83401489257812 1281.8331604003906Q266.33428955078125 1374.3333740234375 383.00128173828125 1421.8333435058594Q499.66827392578125 1469.3333129882812 644.66845703125 1468.6666259765625Q791.001953125 1467.333251953125 906.3353881835938 1417.3333129882812Q1021.6688232421875 1367.3333740234375 1098.1689758300781 1273.5000610351562Q1174.6691284179688 1179.666748046875 1204.0028076171875 1047.333251953125L979.99853515625 1008.6658935546875Q964.6651611328125 1090.3318481445312 915.9988403320312 1148.8312072753906Q867.33251953125 1207.33056640625 795.9999084472656 1238.6635131835938Q724.6672973632812 1269.9964599609375 642.001708984375 1271.329833984375Q561.6693725585938 1272.6632080078125 495.5032958984375 1246.6636047363281Q429.33721923828125 1220.6640014648438 389.6708068847656 1173.9979248046875Q350.00439453125 1127.3318481445312 350.00439453125 1065.9991455078125Q350.00439453125 1005.9999389648438 384.8373718261719 969.1670532226562Q419.67034912109375 932.3341674804688 471.3365478515625 910.8343811035156Q523.0027465820312 889.3345947265625 574.00244140625 875.334716796875L840.00146484375 800.0018310546875Q890.0018310546875 786.3350830078125 953.6687622070312 762.8350219726562Q1017.335693359375 739.3349609375 1076.8358764648438 697.0015563964844Q1136.3360595703125 654.6681518554688 1175.1694946289062 585.5013732910156Q1214.0029296875 516.3345947265625 1214.0029296875 410.667724609375Q1214.0029296875 302.33392333984375 1170.0026550292969 219.66702270507812Q1126.0023803710938 137.0001220703125 1049.3353881835938 81.66671752929688Q972.6683959960938 26.33331298828125 873.0014953613281 -1.833343505859375Q773.3345947265625 -30 662.0013427734375 -30Z" transform="translate(121.662 232.000) scale(0.007500 -0.007500)"/><path d="M740.667724609375 -30Q525.0010375976562 -30 372.8341064453125 64.6666259765625Q220.66717529296875 159.333251953125 140.33358764648438 328.333251953125Q60 497.333251953125 60 720Q60 942.666748046875 140.33358764648438 1111.666748046875Q220.66717529296875 1280.666748046875 372.8341064453125 1375.3333740234375Q525.0010375976562 1470 740.667724609375 1470Q956.3344116210938 1470 1108.5013427734375 1375.3333740234375Q1260.6682739257812 1280.666748046875 1341.0018615722656 1111.666748046875Q1421.33544921875 942.666748046875 1421.33544921875 720Q1421.33544921875 497.333251953125 1341.0018615722656 328.333251953125Q1260.6682739257812 159.333251953125 1108.5013427734375 64.6666259765625Q956.3344116210938 -30 740.667724609375 -30ZM740.667724609375 168.670166015625Q893.666748046875 167.3367919921875 995.4994201660156 236.50296020507812Q1097.3320922851562 305.66912841796875 1148.3317565917969 430.33502197265625Q1199.3314208984375 555.0009155273438 1199.3314208984375 720Q1199.3314208984375 884.9990844726562 1148.3317565917969 1008.4982604980469Q1097.3320922851562 1131.9974365234375 995.4994201660156 1200.9969482421875Q893.666748046875 1269.9964599609375 740.667724609375 1271.329833984375Q587.668701171875 1272.6632080078125 486.1693420410156 1203.6636962890625Q384.66998291015625 1134.6641845703125 333.6703186035156 1009.8316345214844Q282.670654296875 884.9990844726562 282.0040283203125 720Q281.33740234375 555.0009155273438 332.3370666503906 431.66839599609375Q383.33673095703125 308.33587646484375 485.5027160644531 239.16970825195312Q587.668701171875 170.0035400390625 740.667724609375 168.670166015625Z" transform="translate(133.915 232.000) scale(0.007500 -0.007500)"/><path d="M140 0V1440H352.00390625L1061.3321533203125 370.0067138671875V1440H1273.3360595703125V0H1061.3321533203125L352.00390625 1070.659912109375V0Z" transform="translate(147.623 232.000) scale(0.007500 -0.007500)"/><path d="M40 0 507.998291015625 1440H808.67138671875L1276.669677734375 0H1059.9991455078125L628.668212890625 1313.997314453125H683.334716796875L256.6705322265625 0ZM282.66796875 324.6651611328125V520.668701171875H1034.66845703125V324.6651611328125Z" transform="translate(160.820 232.000) scale(0.007500 -0.007500)"/><path d="M160 0V1440H369.337158203125V197.3367919921875H1021.335205078125V0Z" transform="translate(173.297 232.000) scale(0.007500 -0.007500)"/><path d="M140 0V1440H993.3349609375V1230.662841796875H349.337158203125V824.6685791015625H873.3349609375V615.3314208984375H349.337158203125V0Z" transform="translate(189.380 232.000) scale(0.007500 -0.007500)"/><path d="M160 0V1440H369.337158203125V0Z" transform="translate(199.727 232.000) scale(0.007500 -0.007500)"/><path d="M140 0V1440H352.00390625L1061.3321533203125 370.0067138671875V1440H1273.3360595703125V0H1061.3321533203125L352.00390625 1070.659912109375V0Z" transform="translate(206.295 232.000) scale(0.007500 -0.007500)"/><path d="M40 0 507.998291015625 1440H808.67138671875L1276.669677734375 0H1059.9991455078125L628.668212890625 1313.997314453125H683.334716796875L256.6705322265625 0ZM282.66796875 324.6651611328125V520.668701171875H1034.66845703125V324.6651611328125Z" transform="translate(219.492 232.000) scale(0.007500 -0.007500)"/><path d="M140 0V1440H352.00390625L1061.3321533203125 370.0067138671875V1440H1273.3360595703125V0H1061.3321533203125L352.00390625 1070.659912109375V0Z" transform="translate(231.970 232.000) scale(0.007500 -0.007500)"/><path d="M740.667724609375 -30Q525.0010375976562 -30 372.8341064453125 64.6666259765625Q220.66717529296875 159.333251953125 140.33358764648438 328.333251953125Q60 497.333251953125 60 720Q60 942.666748046875 140.33358764648438 1111.666748046875Q220.66717529296875 1280.666748046875 372.8341064453125 1375.3333740234375Q525.0010375976562 1470 740.667724609375 1470Q990.0009765625 1470 1153.6679382324219 1344.1668395996094Q1317.3348999023438 1218.3336791992188 1381.335205078125 1005.3338623046875L1169.3314208984375 947.9993896484375Q1126.6649169921875 1098.9981689453125 1019.4989929199219 1185.1640014648438Q912.3330688476562 1271.329833984375 740.667724609375 1271.329833984375Q587.668701171875 1271.329833984375 485.83599853515625 1202.330322265625Q384.0032958984375 1133.330810546875 332.6702880859375 1009.1649475097656Q281.3372802734375 884.9990844726562 280.670654296875 720Q280.0040283203125 555.0009155273438 331.3370361328125 431.001708984375Q382.6700439453125 307.00250244140625 485.16937255859375 237.83633422851562Q587.668701171875 168.670166015625 740.667724609375 168.670166015625Q912.3330688476562 168.670166015625 1019.4989929199219 255.33599853515625Q1126.6649169921875 342.0018310546875 1169.3314208984375 492.0006103515625L1381.335205078125 434.6661376953125Q1317.3348999023438 221.66632080078125 1153.6679382324219 95.83316040039062Q990.0009765625 -30 740.667724609375 -30Z" transform="translate(245.167 232.000) scale(0.007500 -0.007500)"/><path d="M140 0V1440H1060.001220703125V1242.6632080078125H349.337158203125V839.335693359375H940.001220703125V641.9989013671875H349.337158203125V197.3367919921875H1060.001220703125V0Z" transform="translate(258.725 232.000) scale(0.007500 -0.007500)"/><path d="M40 0 507.998291015625 1440H808.67138671875L1276.669677734375 0H1059.9991455078125L628.668212890625 1313.997314453125H683.334716796875L256.6705322265625 0ZM282.66796875 324.6651611328125V520.668701171875H1034.66845703125V324.6651611328125Z" transform="translate(275.625 232.000) scale(0.007500 -0.007500)"/><path d="M140 0V1440H352.00390625L1061.3321533203125 370.0067138671875V1440H1273.3360595703125V0H1061.3321533203125L352.00390625 1070.659912109375V0Z" transform="translate(288.102 232.000) scale(0.007500 -0.007500)"/><path d="M40 0 507.998291015625 1440H808.67138671875L1276.669677734375 0H1059.9991455078125L628.668212890625 1313.997314453125H683.334716796875L256.6705322265625 0ZM282.66796875 324.6651611328125V520.668701171875H1034.66845703125V324.6651611328125Z" transform="translate(301.300 232.000) scale(0.007500 -0.007500)"/><path d="M160 0V1440H369.337158203125V197.3367919921875H1021.335205078125V0Z" transform="translate(313.777 232.000) scale(0.007500 -0.007500)"/><path d="M487.3336181640625 0V594.6661376953125L0 1440H244.0045166015625L593.3355712890625 834.6705322265625L942 1440H1186.0045166015625L699.3375244140625 594.6661376953125V0Z" transform="translate(324.260 232.000) scale(0.007500 -0.007500)"/><path d="M498.6651611328125 0V1242.6632080078125H20V1440H1186.66748046875V1242.6632080078125H708.0023193359375V0Z" transform="translate(335.755 232.000) scale(0.007500 -0.007500)"/><path d="M160 0V1440H369.337158203125V0Z" transform="translate(347.407 232.000) scale(0.007500 -0.007500)"/><path d="M740.667724609375 -30Q525.0010375976562 -30 372.8341064453125 64.6666259765625Q220.66717529296875 159.333251953125 140.33358764648438 328.333251953125Q60 497.333251953125 60 720Q60 942.666748046875 140.33358764648438 1111.666748046875Q220.66717529296875 1280.666748046875 372.8341064453125 1375.3333740234375Q525.0010375976562 1470 740.667724609375 1470Q990.0009765625 1470 1153.6679382324219 1344.1668395996094Q1317.3348999023438 1218.3336791992188 1381.335205078125 1005.3338623046875L1169.3314208984375 947.9993896484375Q1126.6649169921875 1098.9981689453125 1019.4989929199219 1185.1640014648438Q912.3330688476562 1271.329833984375 740.667724609375 1271.329833984375Q587.668701171875 1271.329833984375 485.83599853515625 1202.330322265625Q384.0032958984375 1133.330810546875 332.6702880859375 1009.1649475097656Q281.3372802734375 884.9990844726562 280.670654296875 720Q280.0040283203125 555.0009155273438 331.3370361328125 431.001708984375Q382.6700439453125 307.00250244140625 485.16937255859375 237.83633422851562Q587.668701171875 168.670166015625 740.667724609375 168.670166015625Q912.3330688476562 168.670166015625 1019.4989929199219 255.33599853515625Q1126.6649169921875 342.0018310546875 1169.3314208984375 492.0006103515625L1381.335205078125 434.6661376953125Q1317.3348999023438 221.66632080078125 1153.6679382324219 95.83316040039062Q990.0009765625 -30 740.667724609375 -30Z" transform="translate(353.975 232.000) scale(0.007500 -0.007500)"/><path d="M662.0013427734375 -30Q506.667724609375 -30 382.16748046875 23.50018310546875Q257.667236328125 77.0003662109375 177.1671142578125 176.33407592773438Q96.6669921875 275.66778564453125 73.333740234375 412.6683349609375L290.671142578125 446.002197265625Q323.67095947265625 314.002685546875 428.6702880859375 240.66973876953125Q533.6696166992188 167.3367919921875 674.001708984375 167.3367919921875Q760.6671752929688 167.3367919921875 833.9998779296875 194.66973876953125Q907.3325805664062 222.002685546875 951.6656799316406 273.5020446777344Q995.998779296875 325.00140380859375 995.998779296875 397.333984375Q995.998779296875 436.33294677734375 982.6658630371094 466.3323669433594Q969.3329467773438 496.331787109375 945.5001525878906 518.4981994628906Q921.6673583984375 540.6646118164062 888.3343811035156 557.3312377929688Q855.0014038085938 573.9978637695312 815.3345947265625 585.9979248046875L446.0009765625 695.331298828125Q392.001708984375 710.9977416992188 336.16839599609375 736.6641845703125Q280.3350830078125 762.3306274414062 233.6680908203125 803.6639404296875Q187.0010986328125 844.9972534179688 158.16741943359375 906.6642761230469Q129.333740234375 968.331298828125 129.333740234375 1055.9989013671875Q129.333740234375 1189.3329467773438 197.83401489257812 1281.8331604003906Q266.33428955078125 1374.3333740234375 383.00128173828125 1421.8333435058594Q499.66827392578125 1469.3333129882812 644.66845703125 1468.6666259765625Q791.001953125 1467.333251953125 906.3353881835938 1417.3333129882812Q1021.6688232421875 1367.3333740234375 1098.1689758300781 1273.5000610351562Q1174.6691284179688 1179.666748046875 1204.0028076171875 1047.333251953125L979.99853515625 1008.6658935546875Q964.6651611328125 1090.3318481445312 915.9988403320312 1148.8312072753906Q867.33251953125 1207.33056640625 795.9999084472656 1238.6635131835938Q724.6672973632812 1269.9964599609375 642.001708984375 1271.329833984375Q561.6693725585938 1272.6632080078125 495.5032958984375 1246.6636047363281Q429.33721923828125 1220.6640014648438 389.6708068847656 1173.9979248046875Q350.00439453125 1127.3318481445312 350.00439453125 1065.9991455078125Q350.00439453125 1005.9999389648438 384.8373718261719 969.1670532226562Q419.67034912109375 932.3341674804688 471.3365478515625 910.8343811035156Q523.0027465820312 889.3345947265625 574.00244140625 875.334716796875L840.00146484375 800.0018310546875Q890.0018310546875 786.3350830078125 953.6687622070312 762.8350219726562Q1017.335693359375 739.3349609375 1076.8358764648438 697.0015563964844Q1136.3360595703125 654.6681518554688 1175.1694946289062 585.5013732910156Q1214.0029296875 516.3345947265625 1214.0029296875 410.667724609375Q1214.0029296875 302.33392333984375 1170.0026550292969 219.66702270507812Q1126.0023803710938 137.0001220703125 1049.3353881835938 81.66671752929688Q972.6683959960938 26.33331298828125 873.0014953613281 -1.833343505859375Q773.3345947265625 -30 662.0013427734375 -30Z" transform="translate(367.532 232.000) scale(0.007500 -0.007500)"/></g>
  <g fill="#09201D"><path d="M260.16644287109375 0V292.83343505859375L9.16656494140625 700H106.6693115234375L302.16766357421875 379.3358154296875L497.666015625 700H595.1687622070312L344.3355712890625 293.0001220703125V0Z" transform="translate(84.000 292.000) scale(0.030000 -0.030000)"/><path d="M291.36098475544 -12Q218.03566961932037 -12 161.51407253522814 21.5Q104.99247545113593 55 72.91265007908359 114.0Q40.83282470703125 173 40.83282470703125 250Q40.83282470703125 327 72.40159045896151 386.0Q103.97035621089177 445 160.48863037967013 478.5Q217.0069045484485 512 289.309561593192 512Q362.6305659202558 512 419.14884008903414 478.5Q475.6671142578125 445 507.2505187988281 386.0Q538.8339233398438 327 538.8339233398438 250Q538.8339233398438 173 507.2633015451256 114.0Q475.6926797504074 55 419.68028624364933 21.5Q363.6678927368913 -12 291.36098475544 -12ZM291.3333740234375 61.50225830078125Q340.51311355340675 61.50225830078125 377.85328615949453 85.63361170671988Q415.1934587655823 109.76496511265852 436.5957528202912 152.10866071175838Q457.998046875 194.45235631085825 457.998046875 250Q457.998046875 305.54764368914175 436.57954221589796 347.8913392882416Q415.1610375567959 390.2350348873415 376.8811568894646 414.3663882932801Q338.60127622213327 438.49774169921875 289.38428679270726 438.49774169921875Q240.16729736328125 438.49774169921875 202.33889934833235 414.371165716826Q164.51050133338342 390.2445897344333 143.08960125262922 347.9092771615555Q121.668701171875 305.5739645886777 121.668701171875 250.03731798769823Q121.668701171875 194.50067138671875 143.50177001953125 152.1678466796875Q165.3348388671875 109.83502197265625 203.68221913213316 85.66864013671875Q242.0295993970788 61.50225830078125 291.3333740234375 61.50225830078125Z" transform="translate(102.120 292.000) scale(0.030000 -0.030000)"/><path d="M250.83258056640625 -12Q193.16583251953125 -12 149.41592407226562 11.66668701171875Q105.666015625 35.3333740234375 81.1661376953125 86.58334350585938Q56.666259765625 137.83331298828125 56.666259765625 219.83319091796875V500H136.668701171875V244Q136.668701171875 170.16778564453125 154.00177001953125 131.16827392578125Q171.3348388671875 92.16876220703125 201.75106811523438 77.58554077148438Q232.16729736328125 63.0023193359375 269.50018310546875 62.83563232421875Q334.99951171875 62.6689453125 371.49908447265625 109.58493041992188Q407.9986572265625 156.50091552734375 407.9986572265625 241.49981689453125V500H488.0010986328125V0H412.998779296875L409.33203125 75.16632080078125Q384.49871826171875 33.49981689453125 344.49884033203125 10.749908447265625Q304.49896240234375 -12 250.83258056640625 -12Z" transform="translate(119.520 292.000) scale(0.030000 -0.030000)"/><path d="M69.9993896484375 0V500H150.0018310546875V410.9998779296875Q179.50189208984375 457.9998779296875 227.41854858398438 479.99993896484375Q275.335205078125 502 327.0018310546875 502V426.83087158203125Q282.50177001953125 426.83087158203125 242.00177001953125 412.4976806640625Q201.50177001953125 398.16448974609375 175.75180053710938 364.9148864746094Q150.0018310546875 331.665283203125 150.0018310546875 275.16607666015625V0Z" transform="translate(136.260 292.000) scale(0.030000 -0.030000)"/><path d="M69.9993896484375 0V500H145.001708984375L148.66845703125 429.83355712890625Q171.83514404296875 470.0001220703125 208.08511352539062 491.00006103515625Q244.3350830078125 512 292.16827392578125 512Q351.6683349609375 512 394.16827392578125 484.166748046875Q436.668212890625 456.33349609375 455.668212890625 398.6669921875Q477.16827392578125 453.50018310546875 517.5015869140625 482.7500915527344Q557.8348999023438 512 614.334716796875 512Q698.0015869140625 512 746.5848083496094 456.16668701171875Q795.1680297851562 400.3333740234375 794.334716796875 286V0H714.332275390625V256Q714.332275390625 329.9989013671875 698.6658325195312 368.9150695800781Q682.9993896484375 407.83123779296875 656.7497253417969 422.4144592285156Q630.5000610351562 436.9976806640625 596.5004272460938 437.16436767578125Q537.6676025390625 437.49774169921875 504.9179382324219 390.5817565917969Q472.16827392578125 343.665771484375 472.16827392578125 258.50018310546875V0H392.16583251953125V256Q392.16583251953125 329.9989013671875 376.4993896484375 368.9150695800781Q360.83294677734375 407.83123779296875 334.5832824707031 422.4144592285156Q308.3336181640625 436.9976806640625 274.333984375 437.16436767578125Q215.50115966796875 437.49774169921875 182.75149536132812 390.5817565917969Q150.0018310546875 343.665771484375 150.0018310546875 258.50018310546875V0Z" transform="translate(153.810 292.000) scale(0.030000 -0.030000)"/><path d="M291.36098475544 -12Q218.03566961932037 -12 161.51407253522814 21.5Q104.99247545113593 55 72.91265007908359 114.0Q40.83282470703125 173 40.83282470703125 250Q40.83282470703125 327 72.40159045896151 386.0Q103.97035621089177 445 160.48863037967013 478.5Q217.0069045484485 512 289.309561593192 512Q362.6305659202558 512 419.14884008903414 478.5Q475.6671142578125 445 507.2505187988281 386.0Q538.8339233398438 327 538.8339233398438 250Q538.8339233398438 173 507.2633015451256 114.0Q475.6926797504074 55 419.68028624364933 21.5Q363.6678927368913 -12 291.36098475544 -12ZM291.3333740234375 61.50225830078125Q340.51311355340675 61.50225830078125 377.85328615949453 85.63361170671988Q415.1934587655823 109.76496511265852 436.5957528202912 152.10866071175838Q457.998046875 194.45235631085825 457.998046875 250Q457.998046875 305.54764368914175 436.57954221589796 347.8913392882416Q415.1610375567959 390.2350348873415 376.8811568894646 414.3663882932801Q338.60127622213327 438.49774169921875 289.38428679270726 438.49774169921875Q240.16729736328125 438.49774169921875 202.33889934833235 414.371165716826Q164.51050133338342 390.2445897344333 143.08960125262922 347.9092771615555Q121.668701171875 305.5739645886777 121.668701171875 250.03731798769823Q121.668701171875 194.50067138671875 143.50177001953125 152.1678466796875Q165.3348388671875 109.83502197265625 203.68221913213316 85.66864013671875Q242.0295993970788 61.50225830078125 291.3333740234375 61.50225830078125Z" transform="translate(179.340 292.000) scale(0.030000 -0.030000)"/><path d="M69.9993896484375 0V500H145.001708984375L148.66845703125 424.83367919921875Q173.50177001953125 467.33349609375 213.50164794921875 489.666748046875Q253.50152587890625 512 307.16790771484375 512Q365.66796875 512 409.4178771972656 488.33331298828125Q453.16778564453125 464.6666259765625 477.66766357421875 413.83331298828125Q502.16754150390625 363 501.334228515625 280.16680908203125V0H421.331787109375V256Q421.331787109375 329.9989013671875 403.99871826171875 368.9150695800781Q386.6656494140625 407.83123779296875 356.66607666015625 422.4144592285156Q326.66650390625 436.9976806640625 288.50030517578125 437.16436767578125Q223.0009765625 437.49774169921875 186.50140380859375 390.5817565917969Q150.0018310546875 343.665771484375 150.0018310546875 258.50018310546875V0Z" transform="translate(196.740 292.000) scale(0.030000 -0.030000)"/><path d="M288.77741607324515 -12Q216.22177009155646 -12 160.30503560528993 21.5Q104.3883011190234 55 72.61047812817904 114.0Q40.83265513733469 173 40.83265513733469 250Q40.83265513733469 327 72.52721261444557 386.0Q104.22177009155646 445 159.83306205493386 478.5Q215.4443540183113 512 287.1112919633774 512Q356.72217700915564 512 407.8891149542218 477.5Q459.0560528992879 443 487.13972533062054 380.83306205493386Q515.2233977619532 318.6661241098677 515.2233977619532 235.22095625635808H121.78067141403866Q126.78067141403866 152.72299084435403 173.80788402848424 106.61291963377417Q220.8350966429298 60.50284842319431 292.66693794506614 60.50284842319431Q345.9439471007121 60.50284842319431 382.41551373346897 85.94679552390642Q418.88708036622586 111.39074262461851 439.38667344862665 151.6677517802645L508.2786368260427 116.5004069175992Q488.722990844354 78.11129196337741 457.389521871821 49.055645981688706Q426.0560528992879 20 383.66693794506614 4.0Q341.27782299084436 -12 288.77741607324515 -12ZM128.05849440488302 302.1673448626653H428.5532044760936Q425.5532044760936 345.4443540183113 406.38667344862665 376.36027466937946Q387.2201424211597 407.2761953204476 356.27619532044764 424.2201424211597Q325.3322482197355 441.1640895218718 286 441.1640895218718Q247.6677517802645 441.1640895218718 212.69618514750763 424.35905391658184Q177.72461851475077 407.55401831129194 154.8915564598169 376.27700915564594Q132.05849440488302 345 128.05849440488302 302.1673448626653Z" transform="translate(213.480 292.000) scale(0.030000 -0.030000)"/><path d="M115.16864013671875 -212Q96.0015869140625 -212 71.16790771484375 -204.74984741210938Q46.334228515625 -197.49969482421875 18.3343505859375 -184.9996337890625L47.83526611328125 -118.3310546875Q71.3349609375 -128.16436767578125 88.41818237304688 -133.24771118164062Q105.50140380859375 -138.3310546875 115.6680908203125 -138.3310546875Q142.50115966796875 -138.3310546875 160.33441162109375 -123.66455078125Q178.16766357421875 -108.998046875 189.50091552734375 -82.49822998046875L224.16693115234375 1.6668701171875L9.16644287109375 500H94.16925048828125L263.50128173828125 95.16949462890625L431.999755859375 500H517.8358764648438L277.83648681640625 -69.6654052734375Q259.0030517578125 -113.9990234375 238.58627319335938 -145.91598510742188Q218.16949462890625 -177.83294677734375 189.00262451171875 -194.91647338867188Q159.83575439453125 -212 115.16864013671875 -212Z" transform="translate(229.860 292.000) scale(0.030000 -0.030000)"/><path d="M103.83428955078125 -14.16668701171875Q81.00048828125 -14.16668701171875 64.66680908203125 2.1669921875Q48.3331298828125 18.50067138671875 48.3331298828125 41.33447265625Q48.3331298828125 64.16827392578125 64.66680908203125 80.501953125Q81.00048828125 96.83563232421875 103.83428955078125 96.83563232421875Q126.6680908203125 96.83563232421875 143.00177001953125 80.501953125Q159.33544921875 64.16827392578125 159.33544921875 41.33447265625Q159.33544921875 18.50067138671875 143.00177001953125 2.1669921875Q126.6680908203125 -14.16668701171875 103.83428955078125 -14.16668701171875Z" transform="translate(245.640 292.000) scale(0.030000 -0.030000)"/><path d="M260.16644287109375 0V292.83343505859375L9.16656494140625 700H106.6693115234375L302.16766357421875 379.3358154296875L497.666015625 700H595.1687622070312L344.3355712890625 293.0001220703125V0Z" transform="translate(259.290 292.000) scale(0.030000 -0.030000)"/><path d="M291.36098475544 -12Q218.03566961932037 -12 161.51407253522814 21.5Q104.99247545113593 55 72.91265007908359 114.0Q40.83282470703125 173 40.83282470703125 250Q40.83282470703125 327 72.40159045896151 386.0Q103.97035621089177 445 160.48863037967013 478.5Q217.0069045484485 512 289.309561593192 512Q362.6305659202558 512 419.14884008903414 478.5Q475.6671142578125 445 507.2505187988281 386.0Q538.8339233398438 327 538.8339233398438 250Q538.8339233398438 173 507.2633015451256 114.0Q475.6926797504074 55 419.68028624364933 21.5Q363.6678927368913 -12 291.36098475544 -12ZM291.3333740234375 61.50225830078125Q340.51311355340675 61.50225830078125 377.85328615949453 85.63361170671988Q415.1934587655823 109.76496511265852 436.5957528202912 152.10866071175838Q457.998046875 194.45235631085825 457.998046875 250Q457.998046875 305.54764368914175 436.57954221589796 347.8913392882416Q415.1610375567959 390.2350348873415 376.8811568894646 414.3663882932801Q338.60127622213327 438.49774169921875 289.38428679270726 438.49774169921875Q240.16729736328125 438.49774169921875 202.33889934833235 414.371165716826Q164.51050133338342 390.2445897344333 143.08960125262922 347.9092771615555Q121.668701171875 305.5739645886777 121.668701171875 250.03731798769823Q121.668701171875 194.50067138671875 143.50177001953125 152.1678466796875Q165.3348388671875 109.83502197265625 203.68221913213316 85.66864013671875Q242.0295993970788 61.50225830078125 291.3333740234375 61.50225830078125Z" transform="translate(277.410 292.000) scale(0.030000 -0.030000)"/><path d="M250.83258056640625 -12Q193.16583251953125 -12 149.41592407226562 11.66668701171875Q105.666015625 35.3333740234375 81.1661376953125 86.58334350585938Q56.666259765625 137.83331298828125 56.666259765625 219.83319091796875V500H136.668701171875V244Q136.668701171875 170.16778564453125 154.00177001953125 131.16827392578125Q171.3348388671875 92.16876220703125 201.75106811523438 77.58554077148438Q232.16729736328125 63.0023193359375 269.50018310546875 62.83563232421875Q334.99951171875 62.6689453125 371.49908447265625 109.58493041992188Q407.9986572265625 156.50091552734375 407.9986572265625 241.49981689453125V500H488.0010986328125V0H412.998779296875L409.33203125 75.16632080078125Q384.49871826171875 33.49981689453125 344.49884033203125 10.749908447265625Q304.49896240234375 -12 250.83258056640625 -12Z" transform="translate(294.810 292.000) scale(0.030000 -0.030000)"/><path d="M69.9993896484375 0V500H150.0018310546875V410.9998779296875Q179.50189208984375 457.9998779296875 227.41854858398438 479.99993896484375Q275.335205078125 502 327.0018310546875 502V426.83087158203125Q282.50177001953125 426.83087158203125 242.00177001953125 412.4976806640625Q201.50177001953125 398.16448974609375 175.75180053710938 364.9148864746094Q150.0018310546875 331.665283203125 150.0018310546875 275.16607666015625V0Z" transform="translate(311.550 292.000) scale(0.030000 -0.030000)"/><path d="M266.83282470703125 -12Q199.9993896484375 -12 149.08273315429688 21.083282470703125Q98.16607666015625 54.16656494140625 69.49945068359375 113.58322143554688Q40.83282470703125 172.9998779296875 40.83282470703125 250Q40.83282470703125 328.0001220703125 69.49945068359375 386.9167785644531Q98.16607666015625 445.83343505859375 149.08273315429688 478.9167175292969Q199.9993896484375 512 266.83282470703125 512Q321.6658935546875 512 365.1656494140625 486.4169006347656Q408.6654052734375 460.83380126953125 435.665283203125 415.66748046875V700H515.667724609375V0H439.6654052734375L436.33203125 85.16595458984375Q409.3321533203125 39.666259765625 365.66571044921875 13.8331298828125Q321.999267578125 -12 266.83282470703125 -12ZM284.83355712890625 60.6689453125Q328.6663818359375 60.6689453125 362.49932861328125 84.41860961914062Q396.332275390625 108.16827392578125 415.7487487792969 150.41769409179688Q435.16522216796875 192.6671142578125 435.665283203125 246.49969482421875V252.6669921875Q435.16522216796875 307.3328857421875 415.7487487792969 349.49896240234375Q396.332275390625 391.6650390625 362.4159851074219 415.4147033691406Q328.49969482421875 439.16436767578125 283.83355712890625 439.16436767578125Q236.50079345703125 439.16436767578125 199.91787719726562 415.0813293457031Q163.3349609375 390.998291015625 142.75186157226562 348.2488098144531Q122.16876220703125 305.49932861328125 122.16876220703125 250Q122.16876220703125 194.50067138671875 143.25186157226562 151.75119018554688Q164.3349609375 109.001708984375 200.91787719726562 84.8353271484375Q237.50079345703125 60.6689453125 284.83355712890625 60.6689453125Z" transform="translate(329.100 292.000) scale(0.030000 -0.030000)"/><path d="M228.3883011190234 -12Q139.83265513733468 -12 90.33265513733468 28.361088504577822Q40.83265513733469 68.72217700915564 40.83265513733469 141Q40.83265513733469 216.66693794506614 91.44394710071211 257.52802644964396Q142.05523906408953 298.3891149542218 232.5556459816887 298.3891149542218H372.2209562563581Q367.387487283825 368.9431332655137 337.4435401831129 404.6368769074262Q307.4995930824008 440.33062054933873 247.0008138351984 440.33062054933873Q205.61251271617496 440.33062054933873 176.36271617497457 423.44191251271616Q147.11291963377417 406.5532044760936 127.66856561546287 371.0536113936928L56.443540183112916 399.49877924720244Q75.49877924720244 434.387487283825 102.13769074262461 459.4711597151577Q128.7766022380468 484.55483214649036 164.6937436419125 498.27741607324515Q200.61088504577822 512 247.0008138351984 512Q316.50122075279756 512 362.3070701932859 484.4443540183113Q408.11291963377414 456.8887080366226 430.80747711088503 403.3054425228891Q453.5020345879959 349.72217700915564 453.22421159715157 270.5004069175992L452.3907426246185 0H378.49877924720244L374.3322482197355 66.66612410986775Q352.44354018311293 29.055239064089523 315.4159206510682 8.527619532044762Q278.3883011190234 -12 228.3883011190234 -12ZM231.6116988809766 58.28026449643947Q275.16653102746693 58.28026449643947 307.30503560528996 76.53006103763988Q339.44354018311293 94.77985757884028 356.61007121057986 128.89033570701935Q373.7766022380468 163.0008138351984 373.7766022380468 210.66612410986775V231.44272634791454H251.11291963377417Q181.05768056968463 231.44272634791454 151.36353001017295 207.99877924720244Q121.66937945066124 184.55483214649033 121.66937945066124 142.11129196337743Q121.66937945066124 102.7790437436419 150.6965920651068 80.52965412004069Q179.7238046795524 58.28026449643947 231.6116988809766 58.28026449643947Z" transform="translate(346.680 292.000) scale(0.030000 -0.030000)"/><path d="M258.000244140625 -12Q184.999755859375 -12 144.9996337890625 25.750152587890625Q104.99951171875 63.50030517578125 104.99951171875 133.0006103515625V429.16473388671875H18.3331298828125V500H104.99951171875V656H185.001953125V500H334.66748046875V429.16473388671875H185.001953125V141.16827392578125Q185.001953125 103.16851806640625 205.50164794921875 82.41873168945312Q226.0013427734375 61.6689453125 263.334228515625 61.6689453125Q274.66748046875 61.6689453125 286.2508239746094 65.41897583007812Q297.83416748046875 69.16900634765625 317.3338623046875 82.50213623046875L348.3345947265625 17.50054931640625Q322.0013427734375 0.83380126953125 300.83428955078125 -5.583099365234375Q279.667236328125 -12 258.000244140625 -12Z" transform="translate(361.980 292.000) scale(0.030000 -0.030000)"/><path d="M228.3883011190234 -12Q139.83265513733468 -12 90.33265513733468 28.361088504577822Q40.83265513733469 68.72217700915564 40.83265513733469 141Q40.83265513733469 216.66693794506614 91.44394710071211 257.52802644964396Q142.05523906408953 298.3891149542218 232.5556459816887 298.3891149542218H372.2209562563581Q367.387487283825 368.9431332655137 337.4435401831129 404.6368769074262Q307.4995930824008 440.33062054933873 247.0008138351984 440.33062054933873Q205.61251271617496 440.33062054933873 176.36271617497457 423.44191251271616Q147.11291963377417 406.5532044760936 127.66856561546287 371.0536113936928L56.443540183112916 399.49877924720244Q75.49877924720244 434.387487283825 102.13769074262461 459.4711597151577Q128.7766022380468 484.55483214649036 164.6937436419125 498.27741607324515Q200.61088504577822 512 247.0008138351984 512Q316.50122075279756 512 362.3070701932859 484.4443540183113Q408.11291963377414 456.8887080366226 430.80747711088503 403.3054425228891Q453.5020345879959 349.72217700915564 453.22421159715157 270.5004069175992L452.3907426246185 0H378.49877924720244L374.3322482197355 66.66612410986775Q352.44354018311293 29.055239064089523 315.4159206510682 8.527619532044762Q278.3883011190234 -12 228.3883011190234 -12ZM231.6116988809766 58.28026449643947Q275.16653102746693 58.28026449643947 307.30503560528996 76.53006103763988Q339.44354018311293 94.77985757884028 356.61007121057986 128.89033570701935Q373.7766022380468 163.0008138351984 373.7766022380468 210.66612410986775V231.44272634791454H251.11291963377417Q181.05768056968463 231.44272634791454 151.36353001017295 207.99877924720244Q121.66937945066124 184.55483214649033 121.66937945066124 142.11129196337743Q121.66937945066124 102.7790437436419 150.6965920651068 80.52965412004069Q179.7238046795524 58.28026449643947 231.6116988809766 58.28026449643947Z" transform="translate(373.320 292.000) scale(0.030000 -0.030000)"/><path d="M103.83428955078125 -14.16668701171875Q81.00048828125 -14.16668701171875 64.66680908203125 2.1669921875Q48.3331298828125 18.50067138671875 48.3331298828125 41.33447265625Q48.3331298828125 64.16827392578125 64.66680908203125 80.501953125Q81.00048828125 96.83563232421875 103.83428955078125 96.83563232421875Q126.6680908203125 96.83563232421875 143.00177001953125 80.501953125Q159.33544921875 64.16827392578125 159.33544921875 41.33447265625Q159.33544921875 18.50067138671875 143.00177001953125 2.1669921875Q126.6680908203125 -14.16668701171875 103.83428955078125 -14.16668701171875Z" transform="translate(388.620 292.000) scale(0.030000 -0.030000)"/><path d="M260.16644287109375 0V292.83343505859375L9.16656494140625 700H106.6693115234375L302.16766357421875 379.3358154296875L497.666015625 700H595.1687622070312L344.3355712890625 293.0001220703125V0Z" transform="translate(402.270 292.000) scale(0.030000 -0.030000)"/><path d="M291.36098475544 -12Q218.03566961932037 -12 161.51407253522814 21.5Q104.99247545113593 55 72.91265007908359 114.0Q40.83282470703125 173 40.83282470703125 250Q40.83282470703125 327 72.40159045896151 386.0Q103.97035621089177 445 160.48863037967013 478.5Q217.0069045484485 512 289.309561593192 512Q362.6305659202558 512 419.14884008903414 478.5Q475.6671142578125 445 507.2505187988281 386.0Q538.8339233398438 327 538.8339233398438 250Q538.8339233398438 173 507.2633015451256 114.0Q475.6926797504074 55 419.68028624364933 21.5Q363.6678927368913 -12 291.36098475544 -12ZM291.3333740234375 61.50225830078125Q340.51311355340675 61.50225830078125 377.85328615949453 85.63361170671988Q415.1934587655823 109.76496511265852 436.5957528202912 152.10866071175838Q457.998046875 194.45235631085825 457.998046875 250Q457.998046875 305.54764368914175 436.57954221589796 347.8913392882416Q415.1610375567959 390.2350348873415 376.8811568894646 414.3663882932801Q338.60127622213327 438.49774169921875 289.38428679270726 438.49774169921875Q240.16729736328125 438.49774169921875 202.33889934833235 414.371165716826Q164.51050133338342 390.2445897344333 143.08960125262922 347.9092771615555Q121.668701171875 305.5739645886777 121.668701171875 250.03731798769823Q121.668701171875 194.50067138671875 143.50177001953125 152.1678466796875Q165.3348388671875 109.83502197265625 203.68221913213316 85.66864013671875Q242.0295993970788 61.50225830078125 291.3333740234375 61.50225830078125Z" transform="translate(420.390 292.000) scale(0.030000 -0.030000)"/><path d="M250.83258056640625 -12Q193.16583251953125 -12 149.41592407226562 11.66668701171875Q105.666015625 35.3333740234375 81.1661376953125 86.58334350585938Q56.666259765625 137.83331298828125 56.666259765625 219.83319091796875V500H136.668701171875V244Q136.668701171875 170.16778564453125 154.00177001953125 131.16827392578125Q171.3348388671875 92.16876220703125 201.75106811523438 77.58554077148438Q232.16729736328125 63.0023193359375 269.50018310546875 62.83563232421875Q334.99951171875 62.6689453125 371.49908447265625 109.58493041992188Q407.9986572265625 156.50091552734375 407.9986572265625 241.49981689453125V500H488.0010986328125V0H412.998779296875L409.33203125 75.16632080078125Q384.49871826171875 33.49981689453125 344.49884033203125 10.749908447265625Q304.49896240234375 -12 250.83258056640625 -12Z" transform="translate(437.790 292.000) scale(0.030000 -0.030000)"/><path d="M69.9993896484375 0V500H150.0018310546875V410.9998779296875Q179.50189208984375 457.9998779296875 227.41854858398438 479.99993896484375Q275.335205078125 502 327.0018310546875 502V426.83087158203125Q282.50177001953125 426.83087158203125 242.00177001953125 412.4976806640625Q201.50177001953125 398.16448974609375 175.75180053710938 364.9148864746094Q150.0018310546875 331.665283203125 150.0018310546875 275.16607666015625V0Z" transform="translate(454.530 292.000) scale(0.030000 -0.030000)"/><path d="M218.49969482421875 0 9.16656494140625 500H91.83575439453125L260.0008544921875 92.50274658203125L427.3326416015625 500H510.83514404296875L301.50201416015625 0Z" transform="translate(472.080 292.000) scale(0.030000 -0.030000)"/><path d="M74.99951171875 0V500H155.001953125V0ZM115.83404541015625 616.3316650390625Q95.83355712890625 616.3316650390625 80.83319091796875 631.33203125Q65.83282470703125 646.3323974609375 65.83282470703125 666.3328857421875Q65.83282470703125 687.3333740234375 80.83319091796875 701.833740234375Q95.83355712890625 716.3341064453125 115.83404541015625 716.3341064453125Q136.83453369140625 716.3341064453125 151.33489990234375 701.833740234375Q165.83526611328125 687.3333740234375 165.83526611328125 666.3328857421875Q165.83526611328125 646.3323974609375 151.33489990234375 631.33203125Q136.83453369140625 616.3316650390625 115.83404541015625 616.3316650390625Z" transform="translate(487.680 292.000) scale(0.030000 -0.030000)"/><path d="M288.77741607324515 -12Q216.22177009155646 -12 160.30503560528993 21.5Q104.3883011190234 55 72.61047812817904 114.0Q40.83265513733469 173 40.83265513733469 250Q40.83265513733469 327 72.52721261444557 386.0Q104.22177009155646 445 159.83306205493386 478.5Q215.4443540183113 512 287.1112919633774 512Q356.72217700915564 512 407.8891149542218 477.5Q459.0560528992879 443 487.13972533062054 380.83306205493386Q515.2233977619532 318.6661241098677 515.2233977619532 235.22095625635808H121.78067141403866Q126.78067141403866 152.72299084435403 173.80788402848424 106.61291963377417Q220.8350966429298 60.50284842319431 292.66693794506614 60.50284842319431Q345.9439471007121 60.50284842319431 382.41551373346897 85.94679552390642Q418.88708036622586 111.39074262461851 439.38667344862665 151.6677517802645L508.2786368260427 116.5004069175992Q488.722990844354 78.11129196337741 457.389521871821 49.055645981688706Q426.0560528992879 20 383.66693794506614 4.0Q341.27782299084436 -12 288.77741607324515 -12ZM128.05849440488302 302.1673448626653H428.5532044760936Q425.5532044760936 345.4443540183113 406.38667344862665 376.36027466937946Q387.2201424211597 407.2761953204476 356.27619532044764 424.2201424211597Q325.3322482197355 441.1640895218718 286 441.1640895218718Q247.6677517802645 441.1640895218718 212.69618514750763 424.35905391658184Q177.72461851475077 407.55401831129194 154.8915564598169 376.27700915564594Q132.05849440488302 345 128.05849440488302 302.1673448626653Z" transform="translate(494.640 292.000) scale(0.030000 -0.030000)"/><path d="M180 0 10 500H90.669189453125L221.3345947265625 112.16973876953125L353 500H432.50238037109375L562.8344116210938 115.16986083984375L693.1665649414062 500H773.8357543945312L603.6690673828125 0H523.5000610351562L392.6678466796875 391.330810546875L261.0023193359375 0Z" transform="translate(511.020 292.000) scale(0.030000 -0.030000)"/><path d="M103.83428955078125 -14.16668701171875Q81.00048828125 -14.16668701171875 64.66680908203125 2.1669921875Q48.3331298828125 18.50067138671875 48.3331298828125 41.33447265625Q48.3331298828125 64.16827392578125 64.66680908203125 80.501953125Q81.00048828125 96.83563232421875 103.83428955078125 96.83563232421875Q126.6680908203125 96.83563232421875 143.00177001953125 80.501953125Q159.33544921875 64.16827392578125 159.33544921875 41.33447265625Q159.33544921875 18.50067138671875 143.00177001953125 2.1669921875Q126.6680908203125 -14.16668701171875 103.83428955078125 -14.16668701171875Z" transform="translate(534.540 292.000) scale(0.030000 -0.030000)"/></g>
  <g fill="#5C6B68"><path d="M390.83355712890625 -12Q290.0654841831752 -12 212.1992459978376 34.083343505859375Q134.3330078125 80.16668701171875 90.08291625976562 162.05792042051766Q45.83282470703125 243.94915382931657 45.83282470703125 349.8085531138615Q45.83282470703125 456.6666259765625 89.666259765625 538.1666259765625Q133.49969482421875 619.6666259765625 210.41653442382812 665.7499694824219Q287.3333740234375 711.8333129882812 388.07787266322543 711.8333129882812Q488.82237130301337 711.8333129882812 566.1615823800223 665.3333129882812Q643.5007934570312 618.8333129882812 686.9175720214844 537.3333129882812Q730.3343505859375 455.83331298828125 730.3343505859375 349.83331298828125Q730.3343505859375 243.9641931604456 687.0009155273438 162.06544008608216Q643.66748046875 80.16668701171875 567.2056084909747 34.083343505859375Q490.74373651319934 -12 390.83355712890625 -12ZM390.8811819893973 64.6689453125Q465.64852251325334 64.6689453125 522.9070554460798 101.25198364257812Q580.1655883789062 137.83502197265625 612.7486877441406 202.09402814592633Q645.331787109375 266.3530343191964 645.331787109375 349.8428379603795Q645.331787109375 433.3326416015625 612.2266052767761 497.63716828102287Q579.1214234441774 561.9416949604832 521.423820821648 598.5530313181323Q463.7262181991186 635.1643676757812 388.0572311531784 635.1643676757812Q313.3341064453125 635.1643676757812 255.18036979714822 598.5628792566197Q197.02663314898396 561.9613908374582 163.93101066628884 497.67416117816174Q130.83538818359375 433.3869315188653 130.83538818359375 349.8604579469326Q130.83538818359375 266.333984375 164.0018310546875 202.08450317382812Q197.16827392578125 137.83502197265625 256.1678466796875 101.25198364257812Q315.16741943359375 64.6689453125 390.8811819893973 64.6689453125Z" transform="translate(85.000 336.000) scale(0.017000 -0.017000)"/><path d="M74.9993896484375 -200V500H150.001708984375L154.3350830078125 414.6673583984375Q182.3349609375 460.333740234375 225.58474731445312 486.1668701171875Q268.83453369140625 512 324.0009765625 512Q390.83441162109375 512 441.7510681152344 478.9167175292969Q492.667724609375 445.83343505859375 521.3343505859375 386.9167785644531Q550.0009765625 328.0001220703125 550.0009765625 249.9934632544424Q550.0009765625 172.9998779296875 521.3343505859375 113.58322143554688Q492.667724609375 54.16656494140625 441.7510681152344 21.083282470703125Q390.83441162109375 -12 324.0009765625 -12Q269.001220703125 -12 226.00146484375 13.66644287109375Q183.001708984375 39.3328857421875 155.0018310546875 84.49920654296875V-200ZM306.000244140625 60.6689453125Q353.4693880948153 60.6689453125 389.98411421342325 84.8353271484375Q426.49884033203125 109.001708984375 447.5819396972656 151.75813547770184Q468.6650390625 194.51456197102866 468.6650390625 250.00694529215494Q468.6650390625 305.49932861328125 448.1144295385328 348.23576967408053Q427.5638200145657 390.97221073487987 391.0294030830685 415.06828920533053Q354.4949861515713 439.16436767578125 307.000244140625 439.16436767578125Q262.7825239701705 439.16436767578125 228.23743008700285 415.0618102346654Q193.69233620383523 390.9592527935496 174.34708362926136 348.21132072817437Q155.0018310546875 305.46338866279916 155.0018310546875 249.98203002475896Q155.0018310546875 194.50067138671875 174.33699370593558 151.71093583917943Q193.6721563571837 108.92120029164009 227.73887150462082 84.79507280207005Q261.8055866520579 60.6689453125 306.000244140625 60.6689453125Z" transform="translate(98.192 336.000) scale(0.017000 -0.017000)"/><path d="M288.77741607324515 -12Q216.22177009155646 -12 160.30503560528993 21.5Q104.3883011190234 55 72.61047812817904 114.0Q40.83265513733469 173 40.83265513733469 250Q40.83265513733469 327 72.52721261444557 386.0Q104.22177009155646 445 159.83306205493386 478.5Q215.4443540183113 512 287.1112919633774 512Q356.72217700915564 512 407.8891149542218 477.5Q459.0560528992879 443 487.13972533062054 380.83306205493386Q515.2233977619532 318.6661241098677 515.2233977619532 235.22095625635808H121.78067141403866Q126.78067141403866 152.72299084435403 173.80788402848424 106.61291963377417Q220.8350966429298 60.50284842319431 292.66693794506614 60.50284842319431Q345.9439471007121 60.50284842319431 382.41551373346897 85.94679552390642Q418.88708036622586 111.39074262461851 439.38667344862665 151.6677517802645L508.2786368260427 116.5004069175992Q488.722990844354 78.11129196337741 457.389521871821 49.055645981688706Q426.0560528992879 20 383.66693794506614 4.0Q341.27782299084436 -12 288.77741607324515 -12ZM128.05849440488302 302.1673448626653H428.5532044760936Q425.5532044760936 345.4443540183113 406.38667344862665 376.36027466937946Q387.2201424211597 407.2761953204476 356.27619532044764 424.2201424211597Q325.3322482197355 441.1640895218718 286 441.1640895218718Q247.6677517802645 441.1640895218718 212.69618514750763 424.35905391658184Q177.72461851475077 407.55401831129194 154.8915564598169 376.27700915564594Q132.05849440488302 345 128.05849440488302 302.1673448626653Z" transform="translate(108.239 336.000) scale(0.017000 -0.017000)"/><path d="M69.9993896484375 0V500H145.001708984375L148.66845703125 424.83367919921875Q173.50177001953125 467.33349609375 213.50164794921875 489.666748046875Q253.50152587890625 512 307.16790771484375 512Q365.66796875 512 409.4178771972656 488.33331298828125Q453.16778564453125 464.6666259765625 477.66766357421875 413.83331298828125Q502.16754150390625 363 501.334228515625 280.16680908203125V0H421.331787109375V256Q421.331787109375 329.9989013671875 403.99871826171875 368.9150695800781Q386.6656494140625 407.83123779296875 356.66607666015625 422.4144592285156Q326.66650390625 436.9976806640625 288.50030517578125 437.16436767578125Q223.0009765625 437.49774169921875 186.50140380859375 390.5817565917969Q150.0018310546875 343.665771484375 150.0018310546875 258.50018310546875V0Z" transform="translate(117.521 336.000) scale(0.017000 -0.017000)"/><path d="M244.72217700915564 -12Q190.22258392675482 -12 148.94476093591047 4.305442522889114Q107.66693794506612 20.61088504577823 80.36108850457782 47.74979654120041Q53.05523906408952 74.88870803662259 40.83265513733469 106.94476093591048L111.22421159715158 135.8350966429298Q127.66856561546287 102.44679552390642 161.97360122075278 81.33591047812818Q196.2786368260427 60.22502543234995 236.77822990844354 60.22502543234995Q284.22177009155644 60.22502543234995 315.9431332655137 78.75223804679553Q347.664496439471 97.2794506612411 347.664496439471 131.16734486266532Q347.664496439471 162.16653102746693 324.1372838250254 181.13809766022382Q300.61007121057986 200.10966429298068 255.38911495422178 211.88708036622583L207.22258392675482 224.60925737538147Q138.83346897253307 242.88708036622583 100.94435401831129 279.3318413021363Q63.05523906408952 315.7766022380468 63.05523906408952 361.8326551373347Q63.05523906408952 433.0552390640895 109.66653102746693 472.52761953204475Q156.27782299084436 512 248 512Q292.1112919633774 512 328.27822990844356 499.08326551373347Q364.44516785350964 486.16653102746693 390.19537131230925 462.6108850457782Q415.94557477110885 439.0552390640895 427.6677517802645 406.77741607324515L358.387487283825 376.2761953204476Q344.8878942014242 409.99755849440487 314.99918616480164 425.0251780264496Q285.11047812817907 440.0527975584944 241.50040691759918 440.0527975584944Q195.7238046795524 440.0527975584944 169.66897253306206 420.6088504577823Q143.6141403865717 401.1649033570702 143.6141403865717 365.99918616480164Q143.6141403865717 346.4995930824008 165.196998982706 328.6112919633774Q186.77985757884028 310.722990844354 229.38992878942014 299.6677517802645L278.5020345879959 287.2786368260427Q327.5020345879959 275.2786368260427 360.61291963377414 251.6673448626653Q393.7238046795524 228.0560528992879 410.83468972533063 198.08367243133267Q427.94557477110885 168.11129196337743 427.94557477110885 134.22258392675482Q427.94557477110885 89.22258392675484 403.9731943031536 56.166937945066124Q380.00081383519836 23.111291963377415 338.8338758901323 5.555645981688707Q297.66693794506614 -12 244.72217700915564 -12Z" transform="translate(131.206 336.000) scale(0.017000 -0.017000)"/><path d="M291.36098475544 -12Q218.03566961932037 -12 161.51407253522814 21.5Q104.99247545113593 55 72.91265007908359 114.0Q40.83282470703125 173 40.83282470703125 250Q40.83282470703125 327 72.40159045896151 386.0Q103.97035621089177 445 160.48863037967013 478.5Q217.0069045484485 512 289.309561593192 512Q362.6305659202558 512 419.14884008903414 478.5Q475.6671142578125 445 507.2505187988281 386.0Q538.8339233398438 327 538.8339233398438 250Q538.8339233398438 173 507.2633015451256 114.0Q475.6926797504074 55 419.68028624364933 21.5Q363.6678927368913 -12 291.36098475544 -12ZM291.3333740234375 61.50225830078125Q340.51311355340675 61.50225830078125 377.85328615949453 85.63361170671988Q415.1934587655823 109.76496511265852 436.5957528202912 152.10866071175838Q457.998046875 194.45235631085825 457.998046875 250Q457.998046875 305.54764368914175 436.57954221589796 347.8913392882416Q415.1610375567959 390.2350348873415 376.8811568894646 414.3663882932801Q338.60127622213327 438.49774169921875 289.38428679270726 438.49774169921875Q240.16729736328125 438.49774169921875 202.33889934833235 414.371165716826Q164.51050133338342 390.2445897344333 143.08960125262922 347.9092771615555Q121.668701171875 305.5739645886777 121.668701171875 250.03731798769823Q121.668701171875 194.50067138671875 143.50177001953125 152.1678466796875Q165.3348388671875 109.83502197265625 203.68221913213316 85.66864013671875Q242.0295993970788 61.50225830078125 291.3333740234375 61.50225830078125Z" transform="translate(139.128 336.000) scale(0.017000 -0.017000)"/><path d="M250.83258056640625 -12Q193.16583251953125 -12 149.41592407226562 11.66668701171875Q105.666015625 35.3333740234375 81.1661376953125 86.58334350585938Q56.666259765625 137.83331298828125 56.666259765625 219.83319091796875V500H136.668701171875V244Q136.668701171875 170.16778564453125 154.00177001953125 131.16827392578125Q171.3348388671875 92.16876220703125 201.75106811523438 77.58554077148438Q232.16729736328125 63.0023193359375 269.50018310546875 62.83563232421875Q334.99951171875 62.6689453125 371.49908447265625 109.58493041992188Q407.9986572265625 156.50091552734375 407.9986572265625 241.49981689453125V500H488.0010986328125V0H412.998779296875L409.33203125 75.16632080078125Q384.49871826171875 33.49981689453125 344.49884033203125 10.749908447265625Q304.49896240234375 -12 250.83258056640625 -12Z" transform="translate(148.988 336.000) scale(0.017000 -0.017000)"/><path d="M69.9993896484375 0V500H150.0018310546875V410.9998779296875Q179.50189208984375 457.9998779296875 227.41854858398438 479.99993896484375Q275.335205078125 502 327.0018310546875 502V426.83087158203125Q282.50177001953125 426.83087158203125 242.00177001953125 412.4976806640625Q201.50177001953125 398.16448974609375 175.75180053710938 364.9148864746094Q150.0018310546875 331.665283203125 150.0018310546875 275.16607666015625V0Z" transform="translate(158.474 336.000) scale(0.017000 -0.017000)"/><path d="M292.83355712890625 -12Q219.16668701171875 -12 162.24984741210938 21.5Q105.3330078125 55 73.08291625976562 114.08334350585938Q40.83282470703125 173.16668701171875 40.83282470703125 250Q40.83282470703125 327 72.666259765625 386.0Q104.49969482421875 445 161.24984741210938 478.5Q218 512 290.83355712890625 512Q363.16705322265625 512 420.0006103515625 478.9164733886719Q476.83416748046875 445.83294677734375 506.50079345703125 386.16583251953125L434.49835205078125 353.49859619140625Q413.9986572265625 392.664794921875 375.8323974609375 415.2478942871094Q337.6661376953125 437.83099365234375 289.16668701171875 437.83099365234375Q240.0006103515625 437.83099365234375 202.25106811523438 413.831298828125Q164.50152587890625 389.83160400390625 143.08511352539062 347.5821228027344Q121.668701171875 305.3326416015625 121.668701171875 250Q121.668701171875 194.6673583984375 143.50177001953125 152.501220703125Q165.3348388671875 110.3350830078125 203.667724609375 86.25204467773438Q242.0006103515625 62.16900634765625 291.16668701171875 62.16900634765625Q340.332763671875 62.16900634765625 378.83233642578125 87.25204467773438Q417.3319091796875 112.3350830078125 437.16497802734375 156.50115966796875L510.000732421875 124.0006103515625Q480.3341064453125 60.16693115234375 423.167236328125 24.083465576171875Q366.0003662109375 -12 292.83355712890625 -12Z" transform="translate(164.220 336.000) scale(0.017000 -0.017000)"/><path d="M288.77741607324515 -12Q216.22177009155646 -12 160.30503560528993 21.5Q104.3883011190234 55 72.61047812817904 114.0Q40.83265513733469 173 40.83265513733469 250Q40.83265513733469 327 72.52721261444557 386.0Q104.22177009155646 445 159.83306205493386 478.5Q215.4443540183113 512 287.1112919633774 512Q356.72217700915564 512 407.8891149542218 477.5Q459.0560528992879 443 487.13972533062054 380.83306205493386Q515.2233977619532 318.6661241098677 515.2233977619532 235.22095625635808H121.78067141403866Q126.78067141403866 152.72299084435403 173.80788402848424 106.61291963377417Q220.8350966429298 60.50284842319431 292.66693794506614 60.50284842319431Q345.9439471007121 60.50284842319431 382.41551373346897 85.94679552390642Q418.88708036622586 111.39074262461851 439.38667344862665 151.6677517802645L508.2786368260427 116.5004069175992Q488.722990844354 78.11129196337741 457.389521871821 49.055645981688706Q426.0560528992879 20 383.66693794506614 4.0Q341.27782299084436 -12 288.77741607324515 -12ZM128.05849440488302 302.1673448626653H428.5532044760936Q425.5532044760936 345.4443540183113 406.38667344862665 376.36027466937946Q387.2201424211597 407.2761953204476 356.27619532044764 424.2201424211597Q325.3322482197355 441.1640895218718 286 441.1640895218718Q247.6677517802645 441.1640895218718 212.69618514750763 424.35905391658184Q177.72461851475077 407.55401831129194 154.8915564598169 376.27700915564594Q132.05849440488302 345 128.05849440488302 302.1673448626653Z" transform="translate(173.417 336.000) scale(0.017000 -0.017000)"/><path d="M103.83428955078125 -14.16668701171875Q81.00048828125 -14.16668701171875 64.66680908203125 2.1669921875Q48.3331298828125 18.50067138671875 48.3331298828125 41.33447265625Q48.3331298828125 64.16827392578125 64.66680908203125 80.501953125Q81.00048828125 96.83563232421875 103.83428955078125 96.83563232421875Q126.6680908203125 96.83563232421875 143.00177001953125 80.501953125Q159.33544921875 64.16827392578125 159.33544921875 41.33447265625Q159.33544921875 18.50067138671875 143.00177001953125 2.1669921875Q126.6680908203125 -14.16668701171875 103.83428955078125 -14.16668701171875Z" transform="translate(182.699 336.000) scale(0.017000 -0.017000)"/><path d="M316.6663818359375 -12Q259.333251953125 -12 214.41653442382812 0.66668701171875Q169.49981689453125 13.3333740234375 136.41635131835938 35.666748046875Q103.3328857421875 58.0001220703125 82.08279418945312 85.58352661132812Q60.83270263671875 113.16693115234375 50.83282470703125 143.83367919921875L131.50201416015625 171.50091552734375Q147.16851806640625 128.16802978515625 192.50128173828125 95.66839599609375Q237.83404541015625 63.16876220703125 303.6666259765625 62.83538818359375Q384.9986572265625 62.668701171875 431.0813903808594 94.91830444335938Q477.16412353515625 127.16790771484375 477.16412353515625 179.83392333984375Q477.16412353515625 229.3331298828125 435.9148254394531 259.832763671875Q394.66552734375 290.3323974609375 327.66650390625 307.3321533203125L250.9991455078125 326.83233642578125Q203.6656494140625 339.16571044921875 164.33233642578125 362.7491760253906Q124.9990234375 386.3326416015625 101.58242797851562 422.49945068359375Q78.16583251953125 458.666259765625 78.16583251953125 509.83294677734375Q78.16583251953125 605.3331298828125 139.58267211914062 658.6665649414062Q200.99951171875 712 317.49969482421875 712Q385.9996337890625 712 436.0829772949219 689.5834655761719Q486.16632080078125 667.1669311523438 517.6664428710938 632.3335571289062Q549.1665649414062 597.5001831054688 561.5001831054688 558.4996948242188L481.83099365234375 530.4990844726562Q462.6646728515625 579.6650390625 417.99859619140625 608.4148254394531Q373.33251953125 637.1646118164062 309.16656494140625 637.1646118164062Q241.83404541015625 637.1646118164062 202.501220703125 604.6650390625Q163.16839599609375 572.1654663085938 163.16839599609375 516.4994506835938Q163.16839599609375 467.6668701171875 194.0013427734375 442.50048828125Q224.83428955078125 417.3341064453125 275.333740234375 404.50091552734375L352.16778564453125 385.83404541015625Q453.83392333984375 361.66748046875 508.4170227050781 306.500732421875Q563.0001220703125 251.333984375 563.0001220703125 187.16705322265625Q563.0001220703125 131.50006103515625 535.2500305175781 86.41665649414062Q507.49993896484375 41.333251953125 452.66650390625 14.6666259765625Q397.83306884765625 -12 316.6663818359375 -12Z" transform="translate(190.434 336.000) scale(0.017000 -0.017000)"/><path d="M288.77741607324515 -12Q216.22177009155646 -12 160.30503560528993 21.5Q104.3883011190234 55 72.61047812817904 114.0Q40.83265513733469 173 40.83265513733469 250Q40.83265513733469 327 72.52721261444557 386.0Q104.22177009155646 445 159.83306205493386 478.5Q215.4443540183113 512 287.1112919633774 512Q356.72217700915564 512 407.8891149542218 477.5Q459.0560528992879 443 487.13972533062054 380.83306205493386Q515.2233977619532 318.6661241098677 515.2233977619532 235.22095625635808H121.78067141403866Q126.78067141403866 152.72299084435403 173.80788402848424 106.61291963377417Q220.8350966429298 60.50284842319431 292.66693794506614 60.50284842319431Q345.9439471007121 60.50284842319431 382.41551373346897 85.94679552390642Q418.88708036622586 111.39074262461851 439.38667344862665 151.6677517802645L508.2786368260427 116.5004069175992Q488.722990844354 78.11129196337741 457.389521871821 49.055645981688706Q426.0560528992879 20 383.66693794506614 4.0Q341.27782299084436 -12 288.77741607324515 -12ZM128.05849440488302 302.1673448626653H428.5532044760936Q425.5532044760936 345.4443540183113 406.38667344862665 376.36027466937946Q387.2201424211597 407.2761953204476 356.27619532044764 424.2201424211597Q325.3322482197355 441.1640895218718 286 441.1640895218718Q247.6677517802645 441.1640895218718 212.69618514750763 424.35905391658184Q177.72461851475077 407.55401831129194 154.8915564598169 376.27700915564594Q132.05849440488302 345 128.05849440488302 302.1673448626653Z" transform="translate(200.872 336.000) scale(0.017000 -0.017000)"/><path d="M69.9993896484375 0V700H150.0018310546875V0Z" transform="translate(210.154 336.000) scale(0.017000 -0.017000)"/><path d="M119.9993896484375 0V430.83160400390625H28.3331298828125V500H119.9993896484375V557.1663208007812Q119.9993896484375 635.1664428710938 156.666259765625 674.5833435058594Q193.3331298828125 714.000244140625 268.000244140625 714.000244140625Q287.6673583984375 714.000244140625 312.5843811035156 706.9167785644531Q337.50140380859375 699.8333129882812 365.83465576171875 687.1665649414062L336.333740234375 623.8317260742188Q313.16741943359375 633.4983520507812 296.834228515625 638.1649780273438Q280.50103759765625 642.8316040039062 269.667724609375 642.8316040039062Q234.6680908203125 642.8316040039062 217.3349609375 620.4151306152344Q200.0018310546875 597.9986572265625 200.0018310546875 551.1655883789062V500H344.66748046875V430.83160400390625H200.0018310546875V0Z" transform="translate(213.894 336.000) scale(0.017000 -0.017000)"/><path d="M58.3331298828125 261.3323974609375V333.83428955078125H358.3331298828125V261.3323974609375Z" transform="translate(220.167 336.000) scale(0.017000 -0.017000)"/><path d="M70.332763671875 0V700H150.335205078125V426.50042724609375Q175.335205078125 468.000244140625 215.16839599609375 490.0001220703125Q255.0015869140625 512 307.50128173828125 512Q366.0013427734375 512 409.7512512207031 488.33331298828125Q453.50115966796875 464.6666259765625 478.00103759765625 413.83331298828125Q502.50091552734375 363 501.6676025390625 280.16680908203125V0H421.6651611328125V256Q421.6651611328125 329.9989013671875 404.33209228515625 368.9150695800781Q386.9990234375 407.83123779296875 356.99945068359375 422.4144592285156Q326.9998779296875 436.9976806640625 288.83367919921875 437.16436767578125Q223.3343505859375 437.49774169921875 186.83477783203125 390.5817565917969Q150.335205078125 343.665771484375 150.335205078125 258.50018310546875V0Z" transform="translate(227.256 336.000) scale(0.017000 -0.017000)"/><path d="M291.36098475544 -12Q218.03566961932037 -12 161.51407253522814 21.5Q104.99247545113593 55 72.91265007908359 114.0Q40.83282470703125 173 40.83282470703125 250Q40.83282470703125 327 72.40159045896151 386.0Q103.97035621089177 445 160.48863037967013 478.5Q217.0069045484485 512 289.309561593192 512Q362.6305659202558 512 419.14884008903414 478.5Q475.6671142578125 445 507.2505187988281 386.0Q538.8339233398438 327 538.8339233398438 250Q538.8339233398438 173 507.2633015451256 114.0Q475.6926797504074 55 419.68028624364933 21.5Q363.6678927368913 -12 291.36098475544 -12ZM291.3333740234375 61.50225830078125Q340.51311355340675 61.50225830078125 377.85328615949453 85.63361170671988Q415.1934587655823 109.76496511265852 436.5957528202912 152.10866071175838Q457.998046875 194.45235631085825 457.998046875 250Q457.998046875 305.54764368914175 436.57954221589796 347.8913392882416Q415.1610375567959 390.2350348873415 376.8811568894646 414.3663882932801Q338.60127622213327 438.49774169921875 289.38428679270726 438.49774169921875Q240.16729736328125 438.49774169921875 202.33889934833235 414.371165716826Q164.51050133338342 390.2445897344333 143.08960125262922 347.9092771615555Q121.668701171875 305.5739645886777 121.668701171875 250.03731798769823Q121.668701171875 194.50067138671875 143.50177001953125 152.1678466796875Q165.3348388671875 109.83502197265625 203.68221913213316 85.66864013671875Q242.0295993970788 61.50225830078125 291.3333740234375 61.50225830078125Z" transform="translate(236.742 336.000) scale(0.017000 -0.017000)"/><path d="M244.72217700915564 -12Q190.22258392675482 -12 148.94476093591047 4.305442522889114Q107.66693794506612 20.61088504577823 80.36108850457782 47.74979654120041Q53.05523906408952 74.88870803662259 40.83265513733469 106.94476093591048L111.22421159715158 135.8350966429298Q127.66856561546287 102.44679552390642 161.97360122075278 81.33591047812818Q196.2786368260427 60.22502543234995 236.77822990844354 60.22502543234995Q284.22177009155644 60.22502543234995 315.9431332655137 78.75223804679553Q347.664496439471 97.2794506612411 347.664496439471 131.16734486266532Q347.664496439471 162.16653102746693 324.1372838250254 181.13809766022382Q300.61007121057986 200.10966429298068 255.38911495422178 211.88708036622583L207.22258392675482 224.60925737538147Q138.83346897253307 242.88708036622583 100.94435401831129 279.3318413021363Q63.05523906408952 315.7766022380468 63.05523906408952 361.8326551373347Q63.05523906408952 433.0552390640895 109.66653102746693 472.52761953204475Q156.27782299084436 512 248 512Q292.1112919633774 512 328.27822990844356 499.08326551373347Q364.44516785350964 486.16653102746693 390.19537131230925 462.6108850457782Q415.94557477110885 439.0552390640895 427.6677517802645 406.77741607324515L358.387487283825 376.2761953204476Q344.8878942014242 409.99755849440487 314.99918616480164 425.0251780264496Q285.11047812817907 440.0527975584944 241.50040691759918 440.0527975584944Q195.7238046795524 440.0527975584944 169.66897253306206 420.6088504577823Q143.6141403865717 401.1649033570702 143.6141403865717 365.99918616480164Q143.6141403865717 346.4995930824008 165.196998982706 328.6112919633774Q186.77985757884028 310.722990844354 229.38992878942014 299.6677517802645L278.5020345879959 287.2786368260427Q327.5020345879959 275.2786368260427 360.61291963377414 251.6673448626653Q393.7238046795524 228.0560528992879 410.83468972533063 198.08367243133267Q427.94557477110885 168.11129196337743 427.94557477110885 134.22258392675482Q427.94557477110885 89.22258392675484 403.9731943031536 56.166937945066124Q380.00081383519836 23.111291963377415 338.8338758901323 5.555645981688707Q297.66693794506614 -12 244.72217700915564 -12Z" transform="translate(246.602 336.000) scale(0.017000 -0.017000)"/><path d="M258.000244140625 -12Q184.999755859375 -12 144.9996337890625 25.750152587890625Q104.99951171875 63.50030517578125 104.99951171875 133.0006103515625V429.16473388671875H18.3331298828125V500H104.99951171875V656H185.001953125V500H334.66748046875V429.16473388671875H185.001953125V141.16827392578125Q185.001953125 103.16851806640625 205.50164794921875 82.41873168945312Q226.0013427734375 61.6689453125 263.334228515625 61.6689453125Q274.66748046875 61.6689453125 286.2508239746094 65.41897583007812Q297.83416748046875 69.16900634765625 317.3338623046875 82.50213623046875L348.3345947265625 17.50054931640625Q322.0013427734375 0.83380126953125 300.83428955078125 -5.583099365234375Q279.667236328125 -12 258.000244140625 -12Z" transform="translate(254.524 336.000) scale(0.017000 -0.017000)"/><path d="M288.77741607324515 -12Q216.22177009155646 -12 160.30503560528993 21.5Q104.3883011190234 55 72.61047812817904 114.0Q40.83265513733469 173 40.83265513733469 250Q40.83265513733469 327 72.52721261444557 386.0Q104.22177009155646 445 159.83306205493386 478.5Q215.4443540183113 512 287.1112919633774 512Q356.72217700915564 512 407.8891149542218 477.5Q459.0560528992879 443 487.13972533062054 380.83306205493386Q515.2233977619532 318.6661241098677 515.2233977619532 235.22095625635808H121.78067141403866Q126.78067141403866 152.72299084435403 173.80788402848424 106.61291963377417Q220.8350966429298 60.50284842319431 292.66693794506614 60.50284842319431Q345.9439471007121 60.50284842319431 382.41551373346897 85.94679552390642Q418.88708036622586 111.39074262461851 439.38667344862665 151.6677517802645L508.2786368260427 116.5004069175992Q488.722990844354 78.11129196337741 457.389521871821 49.055645981688706Q426.0560528992879 20 383.66693794506614 4.0Q341.27782299084436 -12 288.77741607324515 -12ZM128.05849440488302 302.1673448626653H428.5532044760936Q425.5532044760936 345.4443540183113 406.38667344862665 376.36027466937946Q387.2201424211597 407.2761953204476 356.27619532044764 424.2201424211597Q325.3322482197355 441.1640895218718 286 441.1640895218718Q247.6677517802645 441.1640895218718 212.69618514750763 424.35905391658184Q177.72461851475077 407.55401831129194 154.8915564598169 376.27700915564594Q132.05849440488302 345 128.05849440488302 302.1673448626653Z" transform="translate(260.950 336.000) scale(0.017000 -0.017000)"/><path d="M266.83282470703125 -12Q199.9993896484375 -12 149.08273315429688 21.083282470703125Q98.16607666015625 54.16656494140625 69.49945068359375 113.58322143554688Q40.83282470703125 172.9998779296875 40.83282470703125 250Q40.83282470703125 328.0001220703125 69.49945068359375 386.9167785644531Q98.16607666015625 445.83343505859375 149.08273315429688 478.9167175292969Q199.9993896484375 512 266.83282470703125 512Q321.6658935546875 512 365.1656494140625 486.4169006347656Q408.6654052734375 460.83380126953125 435.665283203125 415.66748046875V700H515.667724609375V0H439.6654052734375L436.33203125 85.16595458984375Q409.3321533203125 39.666259765625 365.66571044921875 13.8331298828125Q321.999267578125 -12 266.83282470703125 -12ZM284.83355712890625 60.6689453125Q328.6663818359375 60.6689453125 362.49932861328125 84.41860961914062Q396.332275390625 108.16827392578125 415.7487487792969 150.41769409179688Q435.16522216796875 192.6671142578125 435.665283203125 246.49969482421875V252.6669921875Q435.16522216796875 307.3328857421875 415.7487487792969 349.49896240234375Q396.332275390625 391.6650390625 362.4159851074219 415.4147033691406Q328.49969482421875 439.16436767578125 283.83355712890625 439.16436767578125Q236.50079345703125 439.16436767578125 199.91787719726562 415.0813293457031Q163.3349609375 390.998291015625 142.75186157226562 348.2488098144531Q122.16876220703125 305.49932861328125 122.16876220703125 250Q122.16876220703125 194.50067138671875 143.25186157226562 151.75119018554688Q164.3349609375 109.001708984375 200.91787719726562 84.8353271484375Q237.50079345703125 60.6689453125 284.83355712890625 60.6689453125Z" transform="translate(270.232 336.000) scale(0.017000 -0.017000)"/><path d="M103.83428955078125 -14.16668701171875Q81.00048828125 -14.16668701171875 64.66680908203125 2.1669921875Q48.3331298828125 18.50067138671875 48.3331298828125 41.33447265625Q48.3331298828125 64.16827392578125 64.66680908203125 80.501953125Q81.00048828125 96.83563232421875 103.83428955078125 96.83563232421875Q126.6680908203125 96.83563232421875 143.00177001953125 80.501953125Q159.33544921875 64.16827392578125 159.33544921875 41.33447265625Q159.33544921875 18.50067138671875 143.00177001953125 2.1669921875Q126.6680908203125 -14.16668701171875 103.83428955078125 -14.16668701171875Z" transform="translate(280.194 336.000) scale(0.017000 -0.017000)"/><path d="M234.16619873046875 0V623.3310546875H11.16680908203125V700H541.1680297851562V623.3310546875H318.3353271484375V0Z" transform="translate(287.929 336.000) scale(0.017000 -0.017000)"/><path d="M69.9993896484375 0V500H150.0018310546875V410.9998779296875Q179.50189208984375 457.9998779296875 227.41854858398438 479.99993896484375Q275.335205078125 502 327.0018310546875 502V426.83087158203125Q282.50177001953125 426.83087158203125 242.00177001953125 412.4976806640625Q201.50177001953125 398.16448974609375 175.75180053710938 364.9148864746094Q150.0018310546875 331.665283203125 150.0018310546875 275.16607666015625V0Z" transform="translate(297.313 336.000) scale(0.017000 -0.017000)"/><path d="M74.99951171875 0V500H155.001953125V0ZM115.83404541015625 616.3316650390625Q95.83355712890625 616.3316650390625 80.83319091796875 631.33203125Q65.83282470703125 646.3323974609375 65.83282470703125 666.3328857421875Q65.83282470703125 687.3333740234375 80.83319091796875 701.833740234375Q95.83355712890625 716.3341064453125 115.83404541015625 716.3341064453125Q136.83453369140625 716.3341064453125 151.33489990234375 701.833740234375Q165.83526611328125 687.3333740234375 165.83526611328125 666.3328857421875Q165.83526611328125 646.3323974609375 151.33489990234375 631.33203125Q136.83453369140625 616.3316650390625 115.83404541015625 616.3316650390625Z" transform="translate(303.059 336.000) scale(0.017000 -0.017000)"/><path d="M69.9993896484375 0V700H150.0018310546875V0Z" transform="translate(307.003 336.000) scale(0.017000 -0.017000)"/><path d="M74.99951171875 0V500H155.001953125V0ZM115.83404541015625 616.3316650390625Q95.83355712890625 616.3316650390625 80.83319091796875 631.33203125Q65.83282470703125 646.3323974609375 65.83282470703125 666.3328857421875Q65.83282470703125 687.3333740234375 80.83319091796875 701.833740234375Q95.83355712890625 716.3341064453125 115.83404541015625 716.3341064453125Q136.83453369140625 716.3341064453125 151.33489990234375 701.833740234375Q165.83526611328125 687.3333740234375 165.83526611328125 666.3328857421875Q165.83526611328125 646.3323974609375 151.33489990234375 631.33203125Q136.83453369140625 616.3316650390625 115.83404541015625 616.3316650390625Z" transform="translate(310.743 336.000) scale(0.017000 -0.017000)"/><path d="M69.9993896484375 0V500H145.001708984375L148.66845703125 424.83367919921875Q173.50177001953125 467.33349609375 213.50164794921875 489.666748046875Q253.50152587890625 512 307.16790771484375 512Q365.66796875 512 409.4178771972656 488.33331298828125Q453.16778564453125 464.6666259765625 477.66766357421875 413.83331298828125Q502.16754150390625 363 501.334228515625 280.16680908203125V0H421.331787109375V256Q421.331787109375 329.9989013671875 403.99871826171875 368.9150695800781Q386.6656494140625 407.83123779296875 356.66607666015625 422.4144592285156Q326.66650390625 436.9976806640625 288.50030517578125 437.16436767578125Q223.0009765625 437.49774169921875 186.50140380859375 390.5817565917969Q150.0018310546875 343.665771484375 150.0018310546875 258.50018310546875V0Z" transform="translate(314.687 336.000) scale(0.017000 -0.017000)"/><path d="M270.3338623046875 -212.3333740234375Q222.0001220703125 -212.3333740234375 182.41659545898438 -202.83343505859375Q142.83306884765625 -193.33349609375 115.666259765625 -181.5001220703125Q88.49945068359375 -169.666748046875 76.16583251953125 -162.3331298828125L106.33349609375 -96.83123779296875Q119.000244140625 -103.9979248046875 143.00018310546875 -114.4979248046875Q167.0001220703125 -124.9979248046875 199.41677856445312 -132.58126831054688Q231.83343505859375 -140.16461181640625 268.83367919921875 -140.16461181640625Q317.333251953125 -140.16461181640625 355.49957275390625 -120.664794921875Q393.6658935546875 -101.16497802734375 415.4990234375 -59.6654052734375Q437.3321533203125 -18.16583251953125 437.3321533203125 47.0001220703125V100.16656494140625Q410.16558837890625 55.33349609375 366.165771484375 29.6669921875Q322.16595458984375 4.00048828125 266.83282470703125 4.00048828125Q199.9993896484375 4.00048828125 149.08273315429688 36.083709716796875Q98.16607666015625 68.16693115234375 69.49945068359375 125.5001220703125Q40.83282470703125 182.83331298828125 40.83282470703125 257.333251953125Q40.83282470703125 333.3333740234375 69.49945068359375 390.4167175292969Q98.16607666015625 447.50006103515625 149.08273315429688 479.7500305175781Q199.9993896484375 512 266.83282470703125 512Q322.16595458984375 512 366.165771484375 486.7500915527344Q410.16558837890625 461.50018310546875 437.3321533203125 415.50030517578125V500H517.3345947265625V48.3336181640625Q517.3345947265625 -37.9996337890625 485.00128173828125 -96.24972534179688Q452.66796875 -154.49981689453125 396.5845031738281 -183.41659545898438Q340.50103759765625 -212.3333740234375 270.3338623046875 -212.3333740234375ZM286.0003662109375 73.00244140625Q330.16656494140625 73.00244140625 363.9161682128906 97.00213623046875Q397.665771484375 121.0018310546875 416.7488708496094 162.66796875Q435.83197021484375 204.3341064453125 435.83197021484375 258.50006103515625Q435.83197021484375 312.16607666015625 416.66552734375 353.4155578613281Q397.49908447265625 394.6650390625 363.7494812011719 418.16473388671875Q329.9998779296875 441.6644287109375 285.0003662109375 441.6644287109375Q237.6676025390625 441.6644287109375 201.334716796875 418.16473388671875Q165.0018310546875 394.6650390625 144.58541870117188 353.4155578613281Q124.16900634765625 312.16607666015625 124.0023193359375 258.50006103515625Q124.16900634765625 204.3341064453125 145.0020751953125 162.66796875Q165.83514404296875 121.0018310546875 202.25137329101562 97.00213623046875Q238.6676025390625 73.00244140625 286.0003662109375 73.00244140625Z" transform="translate(324.173 336.000) scale(0.017000 -0.017000)"/><path d="M250.83258056640625 -12Q193.16583251953125 -12 149.41592407226562 11.66668701171875Q105.666015625 35.3333740234375 81.1661376953125 86.58334350585938Q56.666259765625 137.83331298828125 56.666259765625 219.83319091796875V500H136.668701171875V244Q136.668701171875 170.16778564453125 154.00177001953125 131.16827392578125Q171.3348388671875 92.16876220703125 201.75106811523438 77.58554077148438Q232.16729736328125 63.0023193359375 269.50018310546875 62.83563232421875Q334.99951171875 62.6689453125 371.49908447265625 109.58493041992188Q407.9986572265625 156.50091552734375 407.9986572265625 241.49981689453125V500H488.0010986328125V0H412.998779296875L409.33203125 75.16632080078125Q384.49871826171875 33.49981689453125 344.49884033203125 10.749908447265625Q304.49896240234375 -12 250.83258056640625 -12Z" transform="translate(334.152 336.000) scale(0.017000 -0.017000)"/><path d="M228.3883011190234 -12Q139.83265513733468 -12 90.33265513733468 28.361088504577822Q40.83265513733469 68.72217700915564 40.83265513733469 141Q40.83265513733469 216.66693794506614 91.44394710071211 257.52802644964396Q142.05523906408953 298.3891149542218 232.5556459816887 298.3891149542218H372.2209562563581Q367.387487283825 368.9431332655137 337.4435401831129 404.6368769074262Q307.4995930824008 440.33062054933873 247.0008138351984 440.33062054933873Q205.61251271617496 440.33062054933873 176.36271617497457 423.44191251271616Q147.11291963377417 406.5532044760936 127.66856561546287 371.0536113936928L56.443540183112916 399.49877924720244Q75.49877924720244 434.387487283825 102.13769074262461 459.4711597151577Q128.7766022380468 484.55483214649036 164.6937436419125 498.27741607324515Q200.61088504577822 512 247.0008138351984 512Q316.50122075279756 512 362.3070701932859 484.4443540183113Q408.11291963377414 456.8887080366226 430.80747711088503 403.3054425228891Q453.5020345879959 349.72217700915564 453.22421159715157 270.5004069175992L452.3907426246185 0H378.49877924720244L374.3322482197355 66.66612410986775Q352.44354018311293 29.055239064089523 315.4159206510682 8.527619532044762Q278.3883011190234 -12 228.3883011190234 -12ZM231.6116988809766 58.28026449643947Q275.16653102746693 58.28026449643947 307.30503560528996 76.53006103763988Q339.44354018311293 94.77985757884028 356.61007121057986 128.89033570701935Q373.7766022380468 163.0008138351984 373.7766022380468 210.66612410986775V231.44272634791454H251.11291963377417Q181.05768056968463 231.44272634791454 151.36353001017295 207.99877924720244Q121.66937945066124 184.55483214649033 121.66937945066124 142.11129196337743Q121.66937945066124 102.7790437436419 150.6965920651068 80.52965412004069Q179.7238046795524 58.28026449643947 231.6116988809766 58.28026449643947Z" transform="translate(343.638 336.000) scale(0.017000 -0.017000)"/><path d="M69.9993896484375 0V700H150.0018310546875V0Z" transform="translate(352.308 336.000) scale(0.017000 -0.017000)"/><path d="M103.83428955078125 -14.16668701171875Q81.00048828125 -14.16668701171875 64.66680908203125 2.1669921875Q48.3331298828125 18.50067138671875 48.3331298828125 41.33447265625Q48.3331298828125 64.16827392578125 64.66680908203125 80.501953125Q81.00048828125 96.83563232421875 103.83428955078125 96.83563232421875Q126.6680908203125 96.83563232421875 143.00177001953125 80.501953125Q159.33544921875 64.16827392578125 159.33544921875 41.33447265625Q159.33544921875 18.50067138671875 143.00177001953125 2.1669921875Q126.6680908203125 -14.16668701171875 103.83428955078125 -14.16668701171875Z" transform="translate(356.048 336.000) scale(0.017000 -0.017000)"/></g>
</svg>
