<svg xmlns="http://www.w3.org/2000/svg" viewBox="0 0 219.1 64" width="219.1" height="64" role="img" aria-label="Wiseveo">
  <title>Wiseveo</title>
  <polyline points="12,26 20,42 31,21 42,42 50,26" fill="none" stroke="#0F766E" stroke-width="4.5" stroke-linecap="round" stroke-linejoin="round"/><circle cx="42.5" cy="13" r="3.2" fill="#134E4A"/>
  <g fill="#09201D"><path d="M447 0 30 1440H216L536 301L855 1439L1042 1440L1362 301L1681 1440H1868L1451 0H1273L948.5 1129L625 0Z" transform="translate(72.000 44.000) scale(0.015000 -0.015000)"/><path d="M160 0V1440H338V0Z" transform="translate(100.970 44.000) scale(0.015000 -0.015000)"/><path d="M651 -30Q498 -30 375.5 22.0Q253 74 173.5 170.25Q94 266.5 70 399L254 428Q288.5 292 399.0 215.5Q509.5 139 660 139Q756.5 139 835.0 169.5Q913.5 200 959.75 256.75Q1006 313.5 1006 392Q1006 439.5 989.25 474.25Q972.5 509 944.25 533.25Q916 557.5 879.75 574.5Q843.5 591.5 805 603L438 712Q378 729.5 322.0 757.0Q266 784.5 222.0 826.0Q178 867.5 152.0 926.25Q126 985 126 1065Q126 1192.5 192.25 1283.25Q258.5 1374 372.5 1421.75Q486.5 1469.5 630 1469Q775 1468 889.5 1417.5Q1004 1367 1079.25 1273.0Q1154.5 1179 1181 1048L992 1015Q977 1102.5 925.5 1166.25Q874 1230 796.75 1264.5Q719.5 1299 628 1300Q539.5 1301 468.5 1271.75Q397.5 1242.5 355.75 1191.0Q314 1139.5 314 1073Q314 1006.5 351.75 966.0Q389.5 925.5 445.0 902.25Q500.5 879 554 864L828 785Q875 772 936.5 749.0Q998 726 1056.0 684.25Q1114 642.5 1152.0 574.25Q1190 506 1190 402Q1190 297.5 1148.25 216.75Q1106.5 136 1032.5 81.25Q958.5 26.5 860.75 -1.75Q763 -30 651 -30Z" transform="translate(108.940 44.000) scale(0.015000 -0.015000)"/><path d="M140 0V1440H1050V1271H318V820H930V651H318V169H1050V0Z" transform="translate(128.340 44.000) scale(0.015000 -0.015000)"/><path d="M450 0 10 1440H290L650 256L1016 1440H1296L856 0Z" transform="translate(146.090 44.000) scale(0.015000 -0.015000)"/><path d="M140 0V1440H1080V1186H412V878H960V624H412V254H1080V0Z" transform="translate(166.180 44.000) scale(0.015000 -0.015000)"/><path d="M758 -30Q542 -30 385.5 64.0Q229 158 144.5 327.0Q60 496 60 720Q60 944 144.5 1113.0Q229 1282 385.5 1376.0Q542 1470 758 1470Q974 1470 1130.5 1376.0Q1287 1282 1371.5 1113.0Q1456 944 1456 720Q1456 496 1371.5 327.0Q1287 158 1130.5 64.0Q974 -30 758 -30ZM758 226Q895 224 986.0 285.0Q1077 346 1122.5 458.0Q1168 570 1168 720Q1168 870 1122.5 980.0Q1077 1090 986.0 1151.0Q895 1212 758 1214Q621 1216 530.0 1155.0Q439 1094 393.5 982.0Q348 870 348 720Q348 570 393.5 460.0Q439 350 530.0 289.0Q621 228 758 226Z" transform="translate(184.380 44.000) scale(0.015000 -0.015000)"/></g>
</svg>
